<svg width="160" height="100" viewBox="0 0 160 100" fill="none" xmlns="http://www.w3.org/2000/svg">
<path d="M18 13.5H142C142.828 13.5 143.5 14.1716 143.5 15V84C143.5 84.8284 142.828 85.5 142 85.5H18C17.1716 85.5 16.5 84.8284 16.5 84V15C16.5 14.1716 17.1716 13.5 18 13.5Z" fill="#E2E2E6" stroke="#91929C"/>
<path d="M24 78L29.7654 78.3049L27.1468 73.1594L24 78ZM136 21L130.235 20.6951L132.853 25.8406L136 21ZM28.0105 75.9589L28.2373 76.4046L132.216 23.4867L131.99 23.0411L131.763 22.5954L27.7837 75.5133L28.0105 75.9589Z" fill="black"/>
</svg>
