<svg width="160" height="100" viewBox="0 0 160 100" fill="none" xmlns="http://www.w3.org/2000/svg">
<path d="M14 11.5H146C146.828 11.5 147.5 12.1716 147.5 13V87C147.5 87.8284 146.828 88.5 146 88.5H14C13.1716 88.5 12.5 87.8284 12.5 87V13C12.5 12.1716 13.1716 11.5 14 11.5Z" fill="#E2E2E6" stroke="#91929C"/>
<path d="M20 81L25.7672 81.2696L23.1171 76.1402L20 81ZM140 19L134.233 18.7304L136.883 23.8598L140 19ZM23.9979 78.9344L24.2274 79.3786L136.232 21.5098L136.002 21.0656L135.773 20.6214L23.7684 78.4902L23.9979 78.9344Z" fill="black"/>
</svg>
