<svg width="160" height="100" viewBox="0 0 160 100" fill="none" xmlns="http://www.w3.org/2000/svg">
<path d="M8 7.5H152C152.828 7.5 153.5 8.17157 153.5 9V90C153.5 90.8284 152.828 91.5 152 91.5H8C7.17157 91.5 6.5 90.8284 6.5 90V9C6.5 8.17157 7.17157 7.5 8 7.5Z" fill="#E2E2E6" stroke="#91929C"/>
<path d="M14 84L19.7684 84.242L17.0938 79.1254L14 84ZM146 15L140.232 14.758L142.906 19.8746L146 15ZM17.988 81.9154L18.2196 82.3585L142.244 17.5278L142.012 17.0846L141.78 16.6415L17.7564 81.4722L17.988 81.9154Z" fill="black"/>
</svg>
