<svg width="160" height="100" viewBox="0 0 160 100" fill="none" xmlns="http://www.w3.org/2000/svg">
<path d="M10 9.5H150C150.828 9.5 151.5 10.1716 151.5 11V89C151.5 89.8284 150.828 90.5 150 90.5H10C9.17157 90.5 8.5 89.8284 8.5 89V11C8.5 10.1716 9.17157 9.5 10 9.5Z" fill="#E2E2E6" stroke="#91929C"/>
<path d="M11 11.25H149C149.414 11.25 149.75 11.5858 149.75 12V88C149.75 88.4142 149.414 88.75 149 88.75H11C10.5858 88.75 10.25 88.4142 10.25 88V12C10.25 11.5858 10.5858 11.25 11 11.25Z" fill="#E2E2E6" stroke="#91929C" stroke-width="0.5"/>
<path d="M16 83L21.767 83.2743L19.121 78.1428L16 83ZM144 17L138.233 16.7257L140.879 21.8572L144 17ZM19.9996 80.9377L20.2288 81.3821L140.23 19.5067L140 19.0623L139.771 18.6179L19.7705 80.4933L19.9996 80.9377Z" fill="black"/>
</svg>
