<svg width="160" height="100" viewBox="0 0 160 100" fill="none" xmlns="http://www.w3.org/2000/svg">
<path d="M2 4.5H158C158.828 4.5 159.5 5.17157 159.5 6V93C159.5 93.8284 158.828 94.5 158 94.5H2C1.17157 94.5 0.5 93.8284 0.5 93V6C0.5 5.17157 1.17157 4.5 2 4.5Z" fill="#E2E2E6" stroke="#91929C"/>
<path d="M8 87L13.7681 87.2506L11.1011 82.13L8 87ZM152 12L146.232 11.7494L148.899 16.87L152 12ZM11.9911 84.9213L12.2221 85.3648L148.24 14.5222L148.009 14.0787L147.778 13.6352L11.7601 84.4778L11.9911 84.9213Z" fill="black"/>
</svg>
