<svg xmlns="http://www.w3.org/2000/svg" fill="none"><path stroke="#fff" stroke-linecap="round" stroke-linejoin="round" d="M30 83h16M114 83h16"/><path fill="#fff" stroke="#fff" d="M36.5 77.5h3v5h-3zM120.5 77.5h3v5h-3z"/><mask id="a" fill="#fff"><path d="M114 18c5.096 0 9.848 1.467 13.86 4H146a2 2 0 0 1 2 2v40a2 2 0 0 1-2 2h-18.14A25.87 25.87 0 0 1 114 70a25.87 25.87 0 0 1-13.86-4H14a2 2 0 0 1-2-2V24a2 2 0 0 1 2-2h86.14c4.012-2.533 8.764-4 13.86-4"/></mask><path fill="#fff" d="m127.86 22-.534.846.245.154h.289zM146 22v-1zm2 2h1zm0 40h1zm-2 2v1zm-18.14 0v-1h-.289l-.245.154zm-27.72 0 .534-.846-.245-.154h-.289zM14 66v1zm-2-2h-1zm0-40h-1zm2-2v-1zm86.14 0v1h.289l.245-.154zM114 18v1c4.901 0 9.469 1.41 13.326 3.846l.534-.846.534-.846A26.9 26.9 0 0 0 114 17zm13.86 4v1H146v-2h-18.14zM146 22v1a1 1 0 0 1 1 1h2a3 3 0 0 0-3-3zm2 2h-1v40h2V24zm0 40h-1a1 1 0 0 1-1 1v2a3 3 0 0 0 3-3zm-2 2v-1h-18.14v2H146zm-18.14 0-.534-.846A24.87 24.87 0 0 1 114 69v2c5.29 0 10.227-1.524 14.394-4.154zM114 70v-1c-4.901 0-9.469-1.41-13.326-3.846l-.534.846-.534.846A26.9 26.9 0 0 0 114 71zm-13.86-4v-1H14v2h86.14zM14 66v-1a1 1 0 0 1-1-1h-2a3 3 0 0 0 3 3zm-2-2h1V24h-2v40zm0-40h1a1 1 0 0 1 1-1v-2a3 3 0 0 0-3 3zm2-2v1h86.14v-2H14zm86.14 0 .534.846A24.87 24.87 0 0 1 114 19v-2a26.9 26.9 0 0 0-14.394 4.154z" mask="url(#a)"/><circle cx="114" cy="44" r="25.5" stroke="#fff"/><mask id="b" fill="#fff"><path d="M114 18c14.36 0 26 11.64 26 26 0 8.627-4.203 16.27-10.671 21h11.896a2 2 0 0 1 1.897 2.633l-2.667 8A2 2 0 0 1 138.559 77H21.442a2 2 0 0 1-1.898-1.367l-2.667-8A2 2 0 0 1 18.775 65H98.67C92.202 60.27 88 52.627 88 44c0-14.36 11.64-26 26-26"/></mask><path fill="#fff" d="M114 18v-1zm15.329 47-.59-.807L126.268 66h3.061zm13.793 2.633.949.316zm-2.667 8 .949.316zM138.559 77v1zM19.544 75.633l-.948.316zm-2.667-8-.948.316zM18.775 65v-1zm79.895 0v1h3.062l-2.472-1.807zM114 18v1c13.807 0 25 11.193 25 25h2c0-14.912-12.088-27-27-27zm26 26h-1c0 8.294-4.039 15.643-10.261 20.193l.59.807.591.807C136.634 60.897 141 52.96 141 44zm-10.671 21v1h11.896v-2h-11.896zm11.896 0v1a1 1 0 0 1 .949 1.317l.948.316.949.316c.647-1.942-.798-3.949-2.846-3.949zm1.897 2.633-.948-.316-2.667 8 .948.316.949.316 2.667-8zm-2.667 8-.948-.317a1 1 0 0 1-.948.684v2a3 3 0 0 0 2.845-2.05zM138.559 77v-1H21.442v2h117.117zM21.442 77v-1a1 1 0 0 1-.95-.684l-.948.317-.948.316A3 3 0 0 0 21.442 78zm-1.898-1.367.949-.316-2.667-8-.949.316-.948.316 2.667 8zm-2.667-8 .949-.316A1 1 0 0 1 18.775 66v-2a3 3 0 0 0-2.846 3.949zM18.775 65v1H98.67v-2H18.775zm79.895 0 .59-.807C93.04 59.643 89 52.293 89 44h-2c0 8.96 4.366 16.898 11.08 21.807zM88 44h1c0-13.807 11.193-25 25-25v-2c-14.911 0-27 12.088-27 27z" mask="url(#b)"/><circle cx="114" cy="44" r="13.5" stroke="#fff"/></svg>