<svg width="160" height="100" viewBox="0 0 160 100" fill="none" xmlns="http://www.w3.org/2000/svg">
<path d="M26 18.5H134C134.828 18.5 135.5 19.1716 135.5 20V80C135.5 80.8284 134.828 81.5 134 81.5H26C25.1716 81.5 24.5 80.8284 24.5 80V20C24.5 19.1716 25.1716 18.5 26 18.5Z" fill="#E2E2E6" stroke="#91929C"/>
<path d="M32 74L37.7631 74.3459L35.1811 69.1819L32 74ZM128 26L122.237 25.6541L124.819 30.8181L128 26ZM36.0249 71.9875L36.2485 72.4348L124.199 28.4597L123.975 28.0125L123.751 27.5652L35.8013 71.5403L36.0249 71.9875Z" fill="black"/>
</svg>
