<svg xmlns="http://www.w3.org/2000/svg" width="160" height="100" fill="none"><path fill="#fff" stroke="#0E0E13" d="m38.136 24.696 84 7.637a1.5 1.5 0 0 1 1.364 1.493v32.348a1.5 1.5 0 0 1-1.222 1.473l-.142.02-84 7.637A1.5 1.5 0 0 1 36.5 73.81V26.19a1.5 1.5 0 0 1 1.473-1.5z"/><path fill="#F6F6F8" stroke="#0E0E13" d="m41.108 28.653 79.45 5.745a1.015 1.015 0 0 1-.122 2.026l-79.508-3.831a1.5 1.5 0 0 1-1.428-1.5v-.944a1.5 1.5 0 0 1 1.447-1.499zM120.425 63.596a1.014 1.014 0 0 1 .243 2.01l-.097.013-79.445 6.7a1.5 1.5 0 0 1-1.626-1.495v-.941a1.5 1.5 0 0 1 1.264-1.482l.146-.015z"/><rect width="3" height="30" x="39.5" y="35.5" fill="#F6F6F8" stroke="#0E0E13" rx="1.5"/><rect width="2" height="21" x="119.5" y="39.5" fill="#F6F6F8" stroke="#0E0E13" rx="1"/><rect width="2" height="14" x="111.5" y="43.5" fill="#F6F6F8" stroke="#0E0E13" rx="1"/><path fill="#fff" stroke="#0E0E13" d="m59.187 12.777 4 .5a1.5 1.5 0 0 1 1.313 1.489v70.468a1.5 1.5 0 0 1-1.176 1.465l-.137.024-4 .5a1.5 1.5 0 0 1-1.687-1.489V14.266a1.5 1.5 0 0 1 1.687-1.489ZM111.212 24.821l3 .429a1.5 1.5 0 0 1 1.288 1.484v51.532c0 .7-.482 1.3-1.151 1.459l-.137.025-3 .429a1.5 1.5 0 0 1-1.712-1.485V26.306a1.5 1.5 0 0 1 1.544-1.5z"/><rect width="3" height="14" x="59.5" y="16.5" fill="#F6F6F8" stroke="#0E0E13" rx="1.5"/><rect width="2" height="12" x="111.5" y="27.5" fill="#F6F6F8" stroke="#0E0E13" rx="1"/><rect width="3" height="14" x="59.5" y="70.5" fill="#F6F6F8" stroke="#0E0E13" rx="1.5"/><rect width="2" height="12" x="111.5" y="65.5" fill="#F6F6F8" stroke="#0E0E13" rx="1"/><rect width="3" height="6" x="59.5" y="32.5" fill="#F6F6F8" stroke="#0E0E13" rx="1.5"/><rect width="2" height="4" x="111.5" y="41.5" fill="#F6F6F8" stroke="#0E0E13" rx="1"/><rect width="3" height="6" x="59.5" y="62.5" fill="#F6F6F8" stroke="#0E0E13" rx="1.5"/><rect width="2" height="4" x="111.5" y="59.5" fill="#F6F6F8" stroke="#0E0E13" rx="1"/><path fill="#91929C" fill-opacity=".2" stroke="#91929C" stroke-width=".5" d="m22.231.55 116 15.467a1.75 1.75 0 0 1 1.519 1.734v64.498c0 .822-.571 1.526-1.358 1.706l-.161.028-116 15.467a1.75 1.75 0 0 1-1.981-1.734V2.284c0-.992.82-1.772 1.786-1.75z"/></svg>