<svg xmlns="http://www.w3.org/2000/svg" width="160" height="100" fill="none"><path fill="#fff" stroke="#0E0E13" d="m58.798 8.464 9.485 6.036H39.067L28.5 11.617V.646z"/><path fill="#fff" stroke="#0E0E13" d="M28.5.5h31v11h-31zM69.5 3.382v10.963l-10-2.728V.654z"/><mask id="a" fill="#fff"><path d="M53 42.777 81 49v8l-36-8V13h8z"/></mask><path fill="#fff" d="M53 42.777 81 49v8l-36-8V13h8z"/><path fill="#0E0E13" d="M53 42.777h-1v.803l.783.174zM81 49h1v-.802l-.783-.174zm0 8-.217.976 1.217.27V57zm-36-8h-1v.802l.783.174zm0-36v-1h-1v1zm8 0h1v-1h-1zm0 29.777-.217.977 28 6.222L81 49l.217-.976-28-6.223zM81 49h-1v8h2v-8zm0 8 .217-.976-36-8L45 49l-.217.976 36 8zm-36-8h1V13h-2v36zm0-36v1h8v-2h-8zm8 0h-1v29.777h2V13z" mask="url(#a)"/><path fill="#fff" stroke="#0E0E13" d="m50.166 29.744 68 7.555a1.5 1.5 0 0 1 1.334 1.491v.096a1.5 1.5 0 0 1-1.424 1.498h-.159l-68-3.779a1.5 1.5 0 0 1-1.417-1.497v-3.874a1.5 1.5 0 0 1 1.501-1.5zM117.917 67.616a1.5 1.5 0 0 1 1.583 1.498v.096a1.5 1.5 0 0 1-1.194 1.469l-.14.022-68 7.555a1.5 1.5 0 0 1-1.666-1.49v-3.874l.007-.148c.066-.68.588-1.23 1.263-1.335l.147-.015z"/><path fill="#fff" stroke="#0E0E13" d="M74 28.5h4a1.5 1.5 0 0 1 1.5 1.5v48a1.5 1.5 0 0 1-1.5 1.5h-4a1.5 1.5 0 0 1-1.5-1.5V30l.008-.153A1.5 1.5 0 0 1 74 28.5ZM58.187 16.777l4 .5a1.5 1.5 0 0 1 1.313 1.489v70.468a1.5 1.5 0 0 1-1.176 1.465l-.137.024-4 .5a1.5 1.5 0 0 1-1.687-1.489V18.266a1.5 1.5 0 0 1 1.687-1.489Z"/><rect width="3" height="9" x="58.5" y="18.5" fill="#F6F6F8" stroke="#0E0E13" rx="1.5"/><rect width="3" height="9" x="58.5" y="80.5" fill="#F6F6F8" stroke="#0E0E13" rx="1.5"/><rect width="3" height="9" x="58.5" y="49.5" fill="#F6F6F8" stroke="#0E0E13" rx="1.5"/><path fill="#fff" stroke="#0E0E13" d="m80.094 28.632 12 .75a1.5 1.5 0 0 1 1.406 1.497v45.355a1.5 1.5 0 0 1-1.176 1.465l-.138.024-12 1.5a1.5 1.5 0 0 1-1.686-1.489V30.13a1.5 1.5 0 0 1 1.594-1.497Z"/><rect width="3" height="5" x="58.5" y="31.5" fill="#F6F6F8" stroke="#0E0E13" rx="1.5"/><rect width="3" height="3" x="47.5" y="43.5" fill="#F6F6F8" stroke="#0E0E13" rx="1.5"/><rect width="3" height="3" x="47.5" y="15.5" fill="#F6F6F8" stroke="#0E0E13" rx="1.5"/><rect width="3" height="5" x="58.5" y="71.5" fill="#F6F6F8" stroke="#0E0E13" rx="1.5"/><rect width="3" height="5" x="58.5" y="41.5" fill="#F6F6F8" stroke="#0E0E13" rx="1.5"/><rect width="3" height="5" x="58.5" y="61.5" fill="#F6F6F8" stroke="#0E0E13" rx="1.5"/><path fill="#fff" stroke="#0E0E13" d="m106.212 24.821 3 .429a1.5 1.5 0 0 1 1.288 1.484v52.532c0 .7-.482 1.3-1.151 1.459l-.137.025-3 .429a1.5 1.5 0 0 1-1.712-1.485V26.306a1.5 1.5 0 0 1 1.544-1.5z"/><rect width="2" height="5" x="106.5" y="27.5" fill="#F6F6F8" stroke="#0E0E13" rx="1"/><rect width="2" height="4" x="106.5" y="35.5" fill="#F6F6F8" stroke="#0E0E13" rx="1"/><rect width="2" height="7" x="106.5" y="50.5" fill="#F6F6F8" stroke="#0E0E13" rx="1"/><rect width="2" height="5" x="106.5" y="73.5" fill="#F6F6F8" stroke="#0E0E13" rx="1"/><rect width="2" height="4" x="106.5" y="67.5" fill="#F6F6F8" stroke="#0E0E13" rx="1"/><rect width="2" height="4" x="106.5" y="42.5" fill="#F6F6F8" stroke="#0E0E13" rx="1"/><rect width="2" height="4" x="106.5" y="61.5" fill="#F6F6F8" stroke="#0E0E13" rx="1"/><path fill="#91929C" fill-opacity=".2" stroke="#91929C" stroke-width=".5" d="m22.231.55 116 15.467a1.75 1.75 0 0 1 1.519 1.734v64.498c0 .822-.571 1.526-1.358 1.706l-.161.028-116 15.467a1.75 1.75 0 0 1-1.981-1.734V2.284c0-.992.82-1.772 1.786-1.75z"/></svg>