<svg xmlns="http://www.w3.org/2000/svg" width="160" height="100" fill="none"><g clip-path="url(#a)"><path fill="#fff" stroke="#0E0E13" d="m38.136 24.696 84 7.637a1.5 1.5 0 0 1 1.364 1.493v32.348a1.5 1.5 0 0 1-1.222 1.473l-.142.02-84 7.637A1.5 1.5 0 0 1 36.5 73.81V26.19a1.5 1.5 0 0 1 1.473-1.5z"/><path fill="#F6F6F8" stroke="#0E0E13" d="m41.108 28.653 79.45 5.745a1.015 1.015 0 0 1-.122 2.026l-79.508-3.831a1.5 1.5 0 0 1-1.428-1.5v-.944a1.5 1.5 0 0 1 1.447-1.499zM120.425 63.596a1.014 1.014 0 0 1 .243 2.01l-.097.013-79.445 6.7a1.5 1.5 0 0 1-1.626-1.495v-.941a1.5 1.5 0 0 1 1.264-1.482l.146-.015z"/><path fill="#fff" stroke="#0E0E13" d="m59.118 26.669 4 .315A1.5 1.5 0 0 1 64.5 28.48v43.042a1.5 1.5 0 0 1-1.238 1.476l-.144.019-4 .315a1.5 1.5 0 0 1-1.618-1.495V28.164a1.5 1.5 0 0 1 1.456-1.499zM111.125 31.679l2 .167a1.5 1.5 0 0 1 1.375 1.494v33.32a1.5 1.5 0 0 1-1.231 1.476l-.144.018-2 .167a1.5 1.5 0 0 1-1.625-1.495V33.174a1.5 1.5 0 0 1 1.462-1.5z"/><rect width="3" height="30" x="39.5" y="35.5" fill="#F6F6F8" stroke="#0E0E13" rx="1.5"/><rect width="2" height="21" x="119.5" y="39.5" fill="#F6F6F8" stroke="#0E0E13" rx="1"/><path fill="#fff" stroke="#0E0E13" d="m64.043 12.759 4.02.503a1.5 1.5 0 0 1 1.314 1.442l-.003.148-4.762 70.47a1.5 1.5 0 0 1-1.178 1.364l-.132.022-3.961.495a1.5 1.5 0 0 1-1.685-1.412l.002-.175L62.36 14.15a1.5 1.5 0 0 1 1.524-1.401zM115.89 24.83l.16.019 2.037.34a1.5 1.5 0 0 1 1.253 1.47l-.006.145-4.692 51.613a1.5 1.5 0 0 1-1.123 1.317l-.124.027-1.93.321a1.5 1.5 0 0 1-1.746-1.43l.005-.18 4.586-52.275a1.5 1.5 0 0 1 1.58-1.367Z"/><path fill="#F6F6F8" stroke="#0E0E13" d="M61.867 70.5c.811 0 1.463.643 1.494 1.435l-.002.16-.734 11.008a1.496 1.496 0 0 1-2.986-.038l.002-.16.734-11.008a1.496 1.496 0 0 1 1.492-1.397ZM65.867 15.5c.811 0 1.463.643 1.494 1.435l-.002.16-.734 11.009a1.496 1.496 0 0 1-2.986-.039l.002-.16.734-11.009a1.496 1.496 0 0 1 1.492-1.396ZM116.741 27c.606 0 1.087.49 1.092 1.081l-.006.12-.481 4.816a1.093 1.093 0 0 1-2.179-.098l.006-.12.481-4.816a1.093 1.093 0 0 1 1.087-.983ZM112.941 70.5c.606 0 1.087.49 1.092 1.081l-.006.12-.481 4.816a1.093 1.093 0 0 1-2.179-.098l.006-.12.481-4.816a1.093 1.093 0 0 1 1.087-.983ZM115.955 36c.603 0 1.084.485 1.094 1.073l-.005.12-.21 2.313a1.094 1.094 0 0 1-2.183-.08l.005-.118.21-2.314a1.094 1.094 0 0 1 1.089-.994ZM113.455 64c.603 0 1.084.485 1.094 1.073l-.005.12-.21 2.313a1.094 1.094 0 0 1-2.183-.08l.005-.118.21-2.314a1.094 1.094 0 0 1 1.089-.994ZM62.357 62.5c.814 0 1.467.647 1.495 1.44l-.003.162-.215 3.01a1.495 1.495 0 0 1-2.986-.052l.003-.162.215-3.01a1.495 1.495 0 0 1 1.491-1.388ZM64.857 32c.814 0 1.467.647 1.495 1.44l-.003.162-.215 3.01a1.495 1.495 0 0 1-2.986-.052l.003-.162.215-3.01A1.495 1.495 0 0 1 64.857 32Z"/><path fill="#91929C" fill-opacity=".2" stroke="#91929C" stroke-width=".5" d="m22.231.55 116 15.467a1.75 1.75 0 0 1 1.519 1.734v64.498c0 .822-.571 1.526-1.358 1.706l-.161.028-116 15.467a1.75 1.75 0 0 1-1.981-1.734V2.284c0-.992.82-1.772 1.786-1.75z"/><path stroke="#0E0E13" stroke-dasharray="3 3" stroke-width=".5" d="M119 89.75a39.75 39.75 0 0 0 36.724-24.538 39.74 39.74 0 0 0-8.617-43.32A39.75 39.75 0 0 0 119 10.25"/><path fill="#0E0E13" d="M146.418 91.64h-4.76v-1.246h4.76zm2.621-5.446V85.2h1.526V95h-1.554v-6.72c-.14.084-.35.126-.616.126h-1.596v-1.33h1.526c.504 0 .714-.364.714-.882M151.781 95v-1.246l3.766-3.206c.882-.742 1.54-1.428 1.54-2.366 0-1.12-.742-1.736-1.862-1.736s-1.876.756-1.876 1.974v.168h-1.554v-.252c0-1.862 1.344-3.22 3.43-3.22 2.198 0 3.43 1.204 3.43 2.996 0 1.456-.882 2.366-2.072 3.36l-2.604 2.17h4.746V95zM146.546 10.324v-.448c0-2.842 1.582-4.76 3.864-4.76 2.268 0 3.85 1.918 3.85 4.76v.448c0 2.954-1.582 4.76-3.85 4.76-2.282 0-3.864-1.806-3.864-4.76m6.16-.056v-.336c0-2.184-.924-3.458-2.296-3.458-1.386 0-2.31 1.274-2.31 3.458v.336c0 2.198.924 3.458 2.31 3.458 1.372 0 2.296-1.26 2.296-3.458M156.234 5.996v-.192c0-1.218.678-2.04 1.656-2.04.972 0 1.65.822 1.65 2.04v.192c0 1.266-.678 2.04-1.65 2.04-.978 0-1.656-.774-1.656-2.04m2.64-.024v-.144c0-.936-.396-1.482-.984-1.482-.594 0-.99.546-.99 1.482v.144c0 .942.396 1.482.99 1.482.588 0 .984-.54.984-1.482"/></g><defs><clipPath id="a"><path fill="#fff" d="M0 0h160v100H0z"/></clipPath></defs></svg>