<svg xmlns="http://www.w3.org/2000/svg" width="160" height="100" fill="none"><path fill="#fff" stroke="#0E0E13" d="M18.774 65.5h122.452a1.5 1.5 0 0 1 1.471 1.792l-.049.183-2.667 8a1.5 1.5 0 0 1-1.422 1.025H21.441a1.5 1.5 0 0 1-1.38-.913l-.042-.112-2.667-8a1.5 1.5 0 0 1 1.422-1.975Z"/><path stroke="#0E0E13" stroke-linecap="round" stroke-linejoin="round" d="M30 83h16M114 83h16"/><path fill="#0E0E13" d="M36 77h4v6h-4zM120 77h4v6h-4z"/><rect width="135" height="43" x="12.5" y="22.5" fill="#fff" stroke="#0E0E13" rx="1.5"/><circle cx="114" cy="44" r="25.5" fill="#fff" stroke="#0E0E13"/><circle cx="114" cy="44" r="13.5" fill="#fff" stroke="#0E0E13"/></svg>