<svg xmlns="http://www.w3.org/2000/svg" width="180" height="180" fill="none"><g clip-path="url(#a)"><path fill="#fff" d="M0 33.75C0 15.11 15.11 0 33.75 0h112.5C164.89 0 180 15.11 180 33.75v112.5c0 18.64-15.11 33.75-33.75 33.75H33.75C15.11 180 0 164.89 0 146.25z"/><path fill="#173D6C" d="M28.619 53.068v81.461c-3.47-.137-6.119-2.055-6.119-4.703V57.748c0-2.648 2.648-4.566 6.119-4.703z"/><path fill="url(#b)" d="M152.797 59.005 40.149 45.1c-5.251-.64-9.59 1.826-9.59 5.548v86.255c0 3.722 4.361 6.21 9.59 5.548l112.648-13.904c2.625-.319 4.703-2.648 4.703-5.205V64.165c0-2.557-2.078-4.886-4.703-5.206z"/><path fill="#fff" d="m115.445 81.995-10.479-.48v35.572l-10 .799V81.059l-12.146-.548V69.69l32.625 2.648zM142.751 114.027l-9.612.777-11.666-41.987 9.041.731 7.534 30.228 7.078-29.064 7.557.617z"/></g><defs><linearGradient id="b" x1="38.094" x2="148.368" y1="68.183" y2="131.836" gradientUnits="userSpaceOnUse"><stop offset="0" stop-color="#0B7DC2"/><stop offset=".15" stop-color="#0C76B8"/><stop offset=".41" stop-color="#0F639F"/><stop offset=".73" stop-color="#154476"/><stop offset=".8" stop-color="#173D6C"/></linearGradient><clipPath id="a"><path fill="#fff" d="M0 0h180v180H0z"/></clipPath></defs></svg>