<svg xmlns="http://www.w3.org/2000/svg" width="82" height="40" fill="none"><path fill="#173D6C" d="M45.918 9.655h4.523q1.773-.002 2.975 1.195c.806.807 1.21 1.78 1.21 2.903 0 1.124-.404 2.096-1.21 2.903-.8.8-1.786 1.196-2.975 1.196h-1.793v3.76h-2.73zm2.73 5.632h1.793c.418 0 .77-.15 1.044-.446.274-.295.411-.663.411-1.095s-.137-.8-.41-1.095a1.36 1.36 0 0 0-1.045-.446h-1.793v3.0820000000000003M66.928 21.611H63.99l-2.254-3.925h-1.297v3.925h-2.73V9.655h4.783c1.138 0 2.103.396 2.903 1.195q1.198 1.198 1.196 2.903 0 1.078-.605 2.017a4.15 4.15 0 0 1-1.6 1.455l2.543 4.394zm-4.444-9.392h-2.053v3.076h2.053c.375 0 .699-.152.965-.447.267-.295.404-.663.404-1.095s-.137-.8-.404-1.095q-.4-.444-.965-.446zM79.857 20.056q-1.815 1.793-4.408 1.793-2.592 0-4.408-1.794c-1.21-1.195-1.808-2.672-1.808-4.422s.605-3.227 1.808-4.422q1.815-1.794 4.408-1.794t4.408 1.793c1.21 1.196 1.808 2.673 1.808 4.423s-.605 3.227-1.808 4.422m-7.894-4.423c0 1.044.331 1.902.994 2.564q.992.994 2.492.994c1.001 0 1.815-.331 2.478-.994.663-.662 1.008-1.527 1.008-2.564s-.338-1.887-1.008-2.564c-.663-.663-1.484-.994-2.478-.994s-1.837.331-2.492.994c-.663.662-.994 1.512-.994 2.564M6.785 36.154v-2.312h1.376v6.036H6.785v-2.399H4.891v2.399H3.515v-6.036h1.376v2.312zM15.184 39.878h-1.506l-.302-.951h-2.24l-.303.95H9.328l2.052-6.035h1.758l2.053 6.036zm-2.925-4.459-.706 2.212h1.412zM19.714 37.12v-3.278h1.376v6.036h-1.037L17.726 36.6v3.278H16.35v-6.036h1.037zM22.768 33.842h2.413c.828 0 1.52.288 2.089.871.562.584.843 1.297.843 2.147s-.281 1.577-.843 2.153q-.834.865-2.089.865h-2.413zm1.383 4.703h1.037c.476 0 .864-.151 1.153-.454q.444-.453.446-1.231c0-.519-.151-.922-.446-1.225-.296-.31-.677-.468-1.153-.468h-1.037zM32.449 33.842h1.57l-2.024 3.716v2.32h-1.376v-2.32l-2.024-3.716h1.57l1.146 2.326 1.145-2.326zM40.09 39.993c-.604 0-1.109-.13-1.526-.39a2.1 2.1 0 0 1-.886-1.101l1.188-.692c.245.555.663.836 1.268.836q.82-.002.821-.49a.43.43 0 0 0-.267-.41c-.187-.108-.51-.224-.98-.353a3.6 3.6 0 0 1-1.224-.57q-.552-.445-.554-1.267c0-.547.202-1.001.598-1.34a2.18 2.18 0 0 1 1.433-.497c.497 0 .93.115 1.31.346.383.23.678.569.894 1.016l-1.167.684c-.216-.468-.569-.699-1.044-.699q-.302 0-.476.13a.4.4 0 0 0-.172.331c0 .144.072.274.208.39.152.114.44.237.88.36l.561.18c.144.042.31.122.497.23.209.1.36.216.468.338q.41.444.41 1.124-.001.854-.619 1.361c-.41.332-.95.49-1.62.49zM45.003 37.48v1.065h2.413v1.325h-3.789v-6.035h3.753v1.325h-2.37v1.001h2.154v1.31H45.01zM53.495 39.878h-1.484l-1.138-1.981h-.655v1.98h-1.376v-6.035h2.413c.576 0 1.066.202 1.462.605s.605.893.605 1.462q0 .54-.302 1.016a2.1 2.1 0 0 1-.807.734l1.282 2.212zm-2.24-4.747h-1.037v1.549h1.037a.64.64 0 0 0 .49-.224.79.79 0 0 0 .201-.554.79.79 0 0 0-.201-.555.63.63 0 0 0-.49-.223zM57.91 39.878h-1.757l-1.966-6.036h1.505l1.332 4.437 1.34-4.437h1.506l-1.967 6.036zM61.036 39.878v-6.036h1.376v6.036zM66.972 39.993q-1.35.001-2.248-.893-.886-.899-.886-2.24c0-.893.296-1.643.886-2.233q.886-.908 2.248-.908.808-.002 1.498.375c.46.252.82.59 1.087 1.023l-1.188.691a1.33 1.33 0 0 0-.562-.547 1.74 1.74 0 0 0-.828-.195q-.809.002-1.282.49c-.317.324-.476.756-.476 1.304q0 .82.476 1.303c.316.332.742.49 1.282.49.302 0 .583-.065.828-.201q.378-.195.562-.54l1.188.69c-.259.433-.62.771-1.08 1.024a3.1 3.1 0 0 1-1.505.374zM72.23 37.48v1.065h2.412v1.325h-3.788v-6.035h3.752v1.325h-2.37v1.001h2.154v1.31h-2.153zM78.179 39.993c-.605 0-1.11-.13-1.527-.39a2.1 2.1 0 0 1-.886-1.101l1.188-.692c.245.555.663.836 1.268.836q.822-.002.821-.49a.43.43 0 0 0-.266-.41q-.28-.16-.98-.353a3.6 3.6 0 0 1-1.224-.57q-.553-.445-.555-1.267c0-.547.202-1.001.598-1.34a2.18 2.18 0 0 1 1.433-.497c.497 0 .93.115 1.311.346q.571.345.893 1.016l-1.166.684c-.217-.468-.57-.699-1.045-.699q-.303 0-.475.13a.4.4 0 0 0-.173.331q.002.216.209.39c.151.114.44.237.878.36l.562.18c.144.042.31.122.497.23.21.1.36.216.468.338q.411.444.411 1.124-.002.854-.62 1.361c-.41.332-.95.49-1.62.49zM1.93 2.546v25.699C.836 28.202 0 27.597 0 26.761V4.022c0-.835.836-1.44 1.93-1.484z"/><path fill="url(#a)" d="M41.106 4.418 5.568.032C3.91-.17 2.543.608 2.543 1.782v27.212c0 1.174 1.375 1.96 3.025 1.75l35.538-4.386c.829-.1 1.484-.836 1.484-1.642V6.046c0-.807-.655-1.541-1.484-1.642z"/><path fill="#fff" d="m29.323 11.671-3.306-.15v11.221l-3.155.252V11.376l-3.832-.173V7.79l10.293.836zM37.937 21.777l-3.032.245-3.681-13.246 2.852.23 2.377 9.537 2.233-9.17 2.384.195z"/><defs><linearGradient id="a" x1="4.92" x2="39.709" y1="7.314" y2="27.395" gradientUnits="userSpaceOnUse"><stop stop-color="#0B7DC2"/><stop offset=".15" stop-color="#0C76B8"/><stop offset=".41" stop-color="#0F639F"/><stop offset=".73" stop-color="#154476"/><stop offset=".8" stop-color="#173D6C"/></linearGradient></defs></svg>