<svg width="60" height="50" viewBox="0 0 60 50" fill="none" xmlns="http://www.w3.org/2000/svg">
  <path d="M32 6H12C9.79086 6 8 7.79086 8 10V30L28 50L52 26L32 6Z" fill="#F9FAFB" stroke="#0d64a0" stroke-width="2.5" stroke-linejoin="round"/>
  <circle cx="18" cy="16" r="3" fill="#0d64a0"/>
  <!-- Dollar sign path -->
  <path d="M26 23.5C26 22.1193 27.1193 21 28.5 21H32.5C33.8807 21 35 22.1193 35 23.5V23.5C35 24.8807 33.8807 26 32.5 26H28.5C27.1193 26 26 27.1193 26 28.5V28.5C26 29.8807 27.1193 31 28.5 31H32.5C33.8807 31 35 29.8807 35 28.5" stroke="#0d64a0" stroke-width="2.5" stroke-linecap="round"/>
  <path d="M30.5 19V33" stroke="#0d64a0" stroke-width="2.5" stroke-linecap="round"/>
</svg>