<svg xmlns="http://www.w3.org/2000/svg" fill="none"><g clip-path="url(#a)"><path fill="#fff" d="M88.837 20.701h3.36V15.28l4.69 5.422H101l-5.459-6.25 4.663-5.418h-3.741l-4.264 4.995V3.002l-3.36.44zm-7.75-11.967c-3.731 0-6.322 2.503-6.322 6.131s2.591 6.131 6.322 6.131 6.322-2.502 6.322-6.13-2.591-6.132-6.322-6.132m0 9.405c-1.729 0-2.913-1.332-2.913-3.274s1.184-3.274 2.913-3.274S84 12.924 84 14.865s-1.185 3.274-2.913 3.274M67.429 8.734c-3.73 0-6.321 2.503-6.321 6.131s2.59 6.131 6.321 6.131 6.322-2.502 6.322-6.13-2.59-6.132-6.322-6.132m0 9.405c-1.728 0-2.912-1.332-2.912-3.274s1.184-3.274 2.912-3.274c1.729 0 2.913 1.333 2.913 3.274s-1.184 3.274-2.913 3.274M54.568 8.734c-1.555 0-2.843.61-3.65 1.724V3.002l-3.364.435v17.26h2.983l.06-1.8c.795 1.343 2.22 2.1 3.97 2.1 3.191 0 5.527-2.584 5.527-6.132s-2.325-6.13-5.526-6.13m-.796 9.405c-1.728 0-2.913-1.332-2.913-3.274s1.185-3.274 2.913-3.274c1.729 0 2.913 1.333 2.913 3.274S55.5 18.14 53.772 18.14m-12.954.152c-1.784 0-3.065-.827-3.501-2.252h8.28c.08-.435.136-.952.136-1.3 0-3.753-2.106-6.005-5.644-6.005-3.572 0-6.044 2.503-6.044 6.131 0 3.677 2.59 6.131 6.436 6.131 1.991 0 3.927-.664 5.137-1.768l-1.21-2.126c-1.173.809-2.324 1.189-3.59 1.189m-.751-6.95c1.554 0 2.546.94 2.546 2.399v.01h-5.367c.322-1.546 1.325-2.41 2.82-2.41M28.781 21c1.74 0 3.442-.664 4.64-1.816L32.11 16.98c-.933.724-1.991 1.115-2.994 1.115-1.866 0-3.11-1.3-3.11-3.226 0-1.927 1.244-3.226 3.11-3.226.921 0 1.924.332 2.739.92l1.336-2.253c-1.081-.974-2.754-1.572-4.412-1.572-3.65 0-6.23 2.54-6.23 6.131.005 3.58 2.584 6.131 6.234 6.131M18.096 9.033l-.059 1.816c-.796-1.354-2.22-2.111-3.971-2.111-3.202 0-5.526 2.584-5.526 6.131S10.879 21 14.066 21c1.75 0 3.179-.757 3.971-2.1l.06 1.801h2.982V9.033zm-3.235 9.106c-1.728 0-2.912-1.332-2.912-3.274s1.184-3.274 2.912-3.274c1.729 0 2.913 1.333 2.913 3.274s-1.188 3.274-2.913 3.274M8.288 9.055H5.264V8.06c0-1.492.585-2.064 2.103-2.064.47 0 .85.011 1.07.033V3.47c-.415-.114-1.426-.228-2.01-.228-3.091 0-4.516 1.454-4.516 4.595v1.214H.001v2.82h1.91v8.826h3.357v-8.822H7.77z"/></g><defs><clipPath id="a"><path fill="#fff" d="M0 3h101v18H0z"/></clipPath></defs></svg>