<svg xmlns="http://www.w3.org/2000/svg" fill="none"><path fill="#DB4437" d="M16.887 4.427c-2.258.004-3.992 1.748-3.986 4.008.006 2.25 1.754 3.979 4.022 3.973 2.255-.005 3.999-1.757 3.99-4.009-.01-2.252-1.757-3.977-4.026-3.972m.89 6.215c-.844.377-1.644.227-2.338-.379-.9-.785-1.048-2.294-.345-3.304a2.192 2.192 0 0 1 3.522-.134c.353.432.536.98.536 1.787-.034.815-.43 1.61-1.374 2.03"/><path fill="#F4B400" d="M25.607 4.424c-2.273.004-4.017 1.748-4.01 4.018.004 2.24 1.76 3.97 4.026 3.968 2.247-.003 3.992-1.739 3.994-3.97.002-2.275-1.74-4.019-4.01-4.016m-.29 6.387c-.854-.095-1.584-.747-1.85-1.65-.34-1.151.141-2.396 1.118-2.902 1.418-.735 3.084.202 3.251 1.828.011.113.014.226.015.258 0 1.56-1.13 2.624-2.533 2.466"/><path fill="#DB4437" d="M43.678 9.621 49 7.418c-.138-.317-.245-.6-.38-.868-1.014-2.013-3.194-2.724-5.08-1.626-1.236.72-1.787 1.871-1.866 3.267-.165 3.018 2.706 5.063 5.48 3.907.73-.304 1.302-.804 1.76-1.459l-1.357-.9c-1.117 1.658-3.338 1.282-3.88-.118m1.284-3.577c.798-.227 1.622.089 1.957.775l-3.538 1.47c-.088-1.007.602-1.968 1.581-2.245"/><path fill="#4285F4" d="M12.26 5.645H6.987c-.103 0-.205.013-.308.02h-.057c-.015.009-.044.017-.044.027-.008.52-.014 1.04-.01 1.56 0 .024.1.047.154.07q.097.015.196.02h3.668c-.086 1.076-.55 1.937-1.423 2.584C7.348 11.27 3.83 11.04 2.53 8.076c-.753-1.717-.533-3.376.688-4.818 1.205-1.422 3.084-1.918 4.795-1.294.573.209 1.09.57 1.597.842l1.192-1.116s-.086-.064-.12-.095C8.507-.42 5.167-.54 2.725 1.313-.209 3.54-.569 7.75 1.966 10.419c1.493 1.571 3.351 2.189 5.489 1.951 2.37-.263 4.217-1.896 4.738-4.152.2-.844.222-1.72.067-2.573M37.957 4.688h-1.646l-.027.614-.347-.263-.396-.265c-.745-.415-1.532-.441-2.33-.217-1.521.428-2.696 1.794-2.853 3.355-.175 1.73.484 3.084 1.97 3.993 1.214.743 2.874.72 3.893-.34.008-.008.033 0 .056 0 0 .33.029.658-.005.98-.099.95-.606 1.564-1.44 1.791-.892.242-1.782-.047-2.325-.767-.13-.17-.233-.362-.362-.566l-1.496.623c.843 2.022 3.05 2.86 5.06 2.093l.936-.541h.01l.007-.003a.02.02 0 0 0 .01-.015l.052-.048.057-.057.19-.2-.002-.006c.144-.183.31-.352.426-.551.417-.72.573-1.51.573-2.334V4.896c.002-.063-.006-.127-.01-.208m-1.75 4.83c-.384.926-1.213 1.401-2.185 1.298-.896-.095-1.675-.835-1.877-1.79-.043-.201-.057-.41-.072-.543.033-.945.35-1.67 1.103-2.153a2.014 2.014 0 0 1 2.807.599c.529.817.594 1.696.224 2.59"/><path fill="#0F9D58" d="M39.152.433v11.723h1.726V.433z"/></svg>