<svg xmlns="http://www.w3.org/2000/svg" fill="none" viewBox="0 0 76 24"><path fill="#fff" d="M27.032 8.19c.94-.923 1.524-.952 1.524-.952.217-.001.431.043.63.13.445.152.47.398.47.398v6.771c.058 1.896-.414 2.62-.977 3.127a1.2 1.2 0 0 1-.612.294.12.12 0 0 1-.127-.045.1.1 0 0 1-.02-.043l-.005-.029q.015-.195.084-.379c.284-.73.26-1.987.26-1.987l.027-7.289s.023-.134-.09-.076c-1.112.955-1.252 2.304-1.29 2.957-.018.98.398 1.486.398 1.486a.3.3 0 0 1 .096.235.16.16 0 0 1-.143.173h-.024c-.418-.04-1.085-.51-1.321-1.082a2.3 2.3 0 0 1-.2-.876 4.6 4.6 0 0 1 1.329-2.806zm48.507 6.467c0 2.174-1.318 2.14-1.318 2.14-1.254.044-1.575-1.28-1.652-2.626-.06-1.013 0-2.14 0-2.14s0-.052-.044 0c-.42.758-.705 1.916-.845 2.808a10 10 0 0 0-.111 1.196.2.2 0 0 1-.086.199c-.682.312-1.118-.131-1.274-.628-.2-.47-.327-3.297-.327-3.444 0-.148-.118-.046-.118-.046-.944 1.566-.951 3.889-.951 4.355s-.797.323-.797.323c-.683-.052-.656-.384-.656-.384l-.031-.56c-.237.436-.675.994-1.351.956-1.024-.066-1.221-1.124-1.238-1.304 0 0-.51 1.318-1.91 1.304-.951-.016-1.334-.995-1.334-.995s-.379 1.03-1.317.995c-.939-.034-1.707-1.118-1.65-2.52.013-.71.108-1.417.284-2.105 0 0 .076-.135-.052-.151-.128-.017-.936.012-.936.012s-.455 1.835-2.39 4.115l.014 1.506c0 1.5-.187 3.51-2.22 3.674-1.755-.118-1.657-1.47-1.657-1.47-.042-.399.209-1.132 1.258-2.115l1.466-1.365-.042-.63c-.67 1.112-1.696 1.05-1.696 1.05s-.796.162-1.46-1.013c-.198.398-.64 1.093-1.368 1.013-1.024-.114-1.227-1.133-1.243-1.314 0 0-.511 1.33-1.92 1.314-.955-.016-1.34-1.005-1.34-1.005a3.2 3.2 0 0 1-.24-.682l-.043.124c-.217.555-.753 1.52-1.577 1.533-1.512 0-1.576-2.345-1.576-2.345-.442 1.048-1.297 2.373-2.89 2.365-1.593-.007-1.791-.584-1.791-.667a.58.58 0 0 1 .151-.438c.184-.266.337-.375.471-.375a.9.9 0 0 1 .357.199c.203.191.466.308.745.331.501-.018.612-.42.647-.834s-.256-.848-.657-1.213l-.709-.648-1.33 2.192c-.775 1.26-1.543 1.455-1.84 1.415-.403-.055-.797-.474-.82-1.698l.091-3.423c0-.109-.099-.055-.099-.055-1.53 1.624-1.99 4.966-1.99 5.031a.27.27 0 0 1-.273.138c-.137 0 .045 0-.502-.028-.548-.027-.51-1.053-.51-1.053l.036-4.978c0-.165.163-.237.682-.1.52.138.502.3.502.3l-.018 2.89c1.34-3.952 2.35-3.336 2.963-3.033.613.304.52.737.52.737l-.094 2.942c-.027.767.08 1.067.256 1.096.434.104 1.96-2.84 1.96-2.84-.676-.73-.304-1.623.218-2.009.236-.164.51-.264.797-.292 0 0 .682-.035.666.54.018.63-.683 1.394-.683 1.394 1.358.968 1.99 1.479 2.097 2.228.03.198.017.4-.04.591.966-.84 1.04-1.78 1.04-1.78l.016-3.141-1.432-.018s-.11 0-.135-.276a.91.91 0 0 1 .265-.713l1.365.018.054-1.642c.045-.33.255-.375.856-.22.6.156.597.293.597.293l-.067 1.653 1.704.091c.202.018.265.068.22.404a.5.5 0 0 1-.247.42l-1.695.035-.117 3.645c0 .565.026 1.896.555 1.883.74.035 1.174-1.617 1.174-1.617v-.014q-.015-.458.034-.914c.14-1.327.74-2.881 2.092-2.881a1.45 1.45 0 0 1 1.264.797l.022-.298s-.03-.361.54-.272c.572.09.767.315.754.496l-.046 3.68c.076.797.213 1.263.617 1.23.35-.051.598-.53.746-.931-.506-4.205 1.791-4.716 1.791-4.716s1.02-.067 1.484.774l.013-.282s-.045-.372.494-.269q.238.037.464.12c.239.09.315.152.315.372l-.046 4.154s1.195-1.61 1.5-3.173a1 1 0 0 1-.398-.758c.03-.449.255-.986.914-.986.66 0 .713.584.615.982a8 8 0 0 0 1.033-.2c.48-.13 1.123-.198 1.169.552a.85.85 0 0 1-.09.478s-.379 1.661-.32 2.332.239 1.684.765 1.565.704-.863.704-.863a6 6 0 0 1-.105-1.865c.139-1.318.728-2.86 2.083-2.86a1.44 1.44 0 0 1 1.258.796l.017-.299s-.03-.358.54-.269c.57.09.764.313.748.492l-.045 3.65c.076.797.21 1.255.612 1.223.402-.033.715-.667.919-1.195v-.199l.012-3.877a.26.26 0 0 1 .232-.235l.466.072c.652.097.562.347.562.347v2.19c.484-1.488.716-2.055.935-2.434.188-.323.797-.112.797-.112s.666.177.673.796c-.02 1.012.124 2.659.124 2.659s.025.033.037.022a.06.06 0 0 0 .01-.036c.189-1.12.516-2.214.976-3.254.24-.454.938-.13.938-.13.834.286.723.782.723.782-.247 4.252.279 4.52.59 4.55.31.029.473-.375.54-.566s.153-.606.2-.775a.25.25 0 0 1 .215-.173.24.24 0 0 1 .2.2zm-28.221-3.26c-.292.01-.981.198-1.106 2.117-.124 1.92.385 2.411.813 2.468s1.195-.632 1.23-2.67c.036-2.037-.937-1.916-.937-1.916m6.005 0c-.299.01-1.048.272-1.217 2.122-.126 1.94.398 2.441.824 2.503.426.061 1.195-.64 1.249-2.705s-.856-1.912-.856-1.912zm.995 5.947c-1.697 1.466-1.844 2.513-1.844 2.513s-.168.858.649.901c.982.1 1.147-1.093 1.173-2.137l.031-1.266zm9.31-5.88c-.293.013-.982.2-1.106 2.12-.123 1.918.385 2.41.812 2.466s1.195-.631 1.23-2.669c.037-2.037-.936-1.916-.936-1.916M12.034 5.878a6.1 6.1 0 0 0-1.822.277l-.57.207-.53.258-.508.309-.478.356-.435.397-.4.436-.353.474-.309.506-.26.537a6 6 0 0 0-.359 1.152 6.096 6.096 0 0 0 .36 3.619l.259.537.309.506.354.475.398.436.437.397.473.355.508.308.536.26.565.207.588.151a6.1 6.1 0 0 0 2.469 0l.588-.151.564-.207.538-.26.507-.308.473-.355.438-.397.397-.436.355-.473.308-.507.26-.537.208-.564q.09-.29.152-.588l.094-.606a6.3 6.3 0 0 0 0-1.252 6 6 0 0 0-.246-1.194l-.207-.564-.26-.537-.306-.51-.355-.474-.397-.436-.438-.398-.473-.354-.507-.31-.54-.258-.564-.207-.588-.151-.607-.093a6 6 0 0 0-.626-.032zm0 2.123q.207 0 .413.02l.401.061.387.099.37.134.352.169.332.2.309.231.286.259.26.286.227.31.2.33.17.352a4 4 0 0 1 .233.758q.04.197.06.4l.021.413a4 4 0 0 1-.08.815q-.04.196-.1.386l-.131.372-.17.352-.2.33-.228.31-.26.286-.285.258-.31.228-.33.2-.353.169-.37.134-.387.098-.403.061a4 4 0 0 1-.828 0l-.4-.06a4 4 0 0 1-.387-.099l-.37-.134-.353-.17-.331-.2-.31-.227-.286-.258-.259-.286-.227-.31-.201-.331-.173-.351-.135-.37-.099-.388-.06-.4a4.2 4.2 0 0 1 .06-1.228q.04-.195.1-.386l.134-.371.169-.352.2-.331.228-.31.259-.285.286-.259.31-.227.33-.201.353-.17q.182-.075.37-.134l.388-.098a4 4 0 0 1 .814-.081zM18.432 4.13q-.073-.002-.147.007-.073.01-.144.022a1.5 1.5 0 0 0-.536.228q-.06.04-.117.09a1 1 0 0 0-.107.1c-.03.034-.066.072-.096.11s-.059.076-.085.12a1.4 1.4 0 0 0-.183.402 1.3 1.3 0 0 0-.049.29v.104a1.5 1.5 0 0 0 .445 1.058 1.3 1.3 0 0 0 .229.183 1.4 1.4 0 0 0 .26.135q.069.027.14.047a1.3 1.3 0 0 0 .287.05q.052.002.103.004.074.002.147-.007t.145-.022a1.5 1.5 0 0 0 .536-.229c.04-.028.075-.057.116-.09a1.3 1.3 0 0 0 .204-.21 1.47 1.47 0 0 0 .314-.812q.001-.052.003-.104.002-.074-.007-.147a1.3 1.3 0 0 0-.059-.289 1.5 1.5 0 0 0-.378-.622q-.053-.048-.11-.097a1 1 0 0 0-.119-.085l-.127-.076a1.4 1.4 0 0 0-.415-.139 1 1 0 0 0-.146-.017q-.052-.002-.104-.004"/><path fill="#fff" d="M10.868.003c-.67 0-1.266 0-1.802.01L7.626.05a21 21 0 0 0-1.617.127 10 10 0 0 0-.819.14 7 7 0 0 0-.687.188A8.136 8.136 0 0 0 3.57.9c-.159.08-.303.16-.447.245a4.8 4.8 0 0 0-.79.595 8 8 0 0 0-.4.393c-.173.181-.323.35-.455.516a5 5 0 0 0-.506.753q-.074.133-.136.273c-.088.188-.17.39-.251.618A7 7 0 0 0 .29 5.356a8 8 0 0 0-.102.647q-.048.389-.076.777-.032.427-.054.95L.024 8.891.005 10.31 0 12.022l.016 2.491.05 1.888.038.737.048.611q.023.247.057.492.03.22.067.38a8 8 0 0 0 .39 1.285c.082.204.169.392.264.578q.144.28.31.53a5.8 5.8 0 0 0 .76.943q.214.216.45.409.24.197.498.369.24.159.477.294a6 6 0 0 0 .995.446q.265.09.555.16.293.07.62.125c.217.037.454.068.699.094.245.027.515.049.8.068q.427.028.918.045c.507.019 1.273.03 2.156.033l2.862-.006 2.71-.038 1.03-.029.67-.034a11 11 0 0 0 .822-.098 8 8 0 0 0 1.114-.26q.179-.055.352-.121.175-.067.349-.139.173-.074.347-.158c.178-.085.322-.157.448-.227q.178-.097.341-.218.176-.132.338-.282c.123-.113.263-.25.436-.424q.227-.224.39-.404c.111-.12.204-.227.286-.332q.117-.148.217-.308.096-.154.187-.332.136-.268.247-.509c.073-.161.136-.313.195-.473a5.4 5.4 0 0 0 .265-1.027c.032-.196.06-.408.083-.645s.044-.5.063-.795l.047-.986.04-1.23.029-1.371.01-1.434-.026-2.816-.034-1.26-.047-1.084-.058-.844a5.6 5.6 0 0 0-.16-.958 8 8 0 0 0-.229-.775c-.048-.124-.09-.247-.139-.366a6.6 6.6 0 0 0-.516-1 5.52 5.52 0 0 0-.917-1.114 5.8 5.8 0 0 0-1.178-.859 7 7 0 0 0-.335-.175 12 12 0 0 0-.531-.244 5.477 5.477 0 0 0-1.07-.334c-.2-.04-.418-.076-.666-.103a24 24 0 0 0-.838-.076C16.986.09 16.63.078 16.226.065l-1.378-.03-1.744-.02L10.871 0zm1.159 2.119 3.22.018 1.213.023c.335.01.59.02.74.034q.292.025.558.061a7 7 0 0 1 .972.204q.221.066.424.146a4.1 4.1 0 0 1 1.084.638 4.6 4.6 0 0 1 .615.616 3.6 3.6 0 0 1 .637 1.171q.078.228.138.487a9 9 0 0 1 .187 1.186q.032.338.056.723c.012.206.023.478.032.8l.023 1.094.016 2.682-.017 2.68-.023 1.091-.032.795c-.023.371-.046.682-.076.956q-.021.203-.046.38a7 7 0 0 1-.057.333c-.021.11-.044.2-.07.303a3 3 0 0 1-.085.281 6 6 0 0 1-.353.81 4 4 0 0 1-.289.452c-.053.068-.106.14-.163.206a4 4 0 0 1-.37.372 3.4 3.4 0 0 1-.427.318c-.075.047-.151.097-.235.141a4.95 4.95 0 0 1-.798.35 7 7 0 0 1-.606.174 8 8 0 0 1-.674.125 7 7 0 0 1-.573.036l-1.092.03-3.096.041-3.24.005-1.273-.014-.826-.026-.607-.042a14 14 0 0 1-.53-.054 10 10 0 0 1-.464-.067 4.959 4.959 0 0 1-.773-.19 4 4 0 0 1-.65-.279 4 4 0 0 1-.314-.186l-.227-.151a3.931 3.931 0 0 1-.588-.519 3.404 3.404 0 0 1-.456-.625 3 3 0 0 1-.126-.236l-.113-.253a4 4 0 0 1-.1-.269 6 6 0 0 1-.167-.592 9 9 0 0 1-.124-.672q-.052-.357-.085-.758c-.017-.197-.03-.505-.04-.893l-.021-1.382.008-3.52.06-3.363.046-1.185.027-.392a2 2 0 0 1 .028-.228q.048-.227.097-.429a8 8 0 0 1 .102-.374c.038-.125.076-.228.115-.33a3.3 3.3 0 0 1 .668-1.078 6 6 0 0 1 .564-.554q.168-.145.327-.25a3.5 3.5 0 0 1 .716-.38 4.7 4.7 0 0 1 .87-.247c.157-.033.335-.06.52-.084.184-.024.378-.045.59-.063.146-.013.399-.024.731-.034l1.209-.024 3.214-.02z"/></svg>