<svg width="95" height="24" viewBox="0 0 95 24" fill="none" xmlns="http://www.w3.org/2000/svg">
<path d="M49.3813 11.426C50.3815 11.426 50.7286 12.0353 50.7286 12.7621C50.7286 13.9935 49.7781 14.7441 48.2911 14.7441C47.7587 14.7441 47.0175 14.6168 46.5763 14.4702C46.7609 13.3385 47.4843 11.426 49.3813 11.426ZM70.8698 11.426C71.7845 11.426 72.2177 12.0353 72.2177 12.7621C72.2177 13.9935 71.2688 14.7441 69.7832 14.7441C69.2481 14.7441 68.5065 14.6169 68.0682 14.4702C68.2516 13.3385 69.0681 11.426 70.8698 11.426ZM91.241 11.5287H93.5324C93.8469 11.5287 94.0315 11.4011 94.1001 11.1077C94.2028 10.683 94.3861 9.94322 94.4391 9.74204C94.5065 9.47779 94.3534 9.27577 94.0629 9.27577H91.7997C91.9624 8.62592 92.5976 6.51046 92.5976 5.13309C92.5976 2.38279 90.271 0.0435391 86.9686 0.0435391C83.2425 0.0435391 80.8159 2.55487 80.8159 6.09022C80.8159 7.12222 81.199 8.32246 81.6757 9.07047C81.4775 9.05636 81.2726 9.04973 81.0617 9.04973C78.2289 9.04973 76.4446 10.5941 76.4446 12.8403C76.4446 14.9478 78.0998 15.766 79.6563 16.3117C81.0397 16.7955 82.3131 17.0216 82.3131 18.1062C82.3131 18.8377 81.6129 19.2674 80.2423 19.2674C78.6139 19.2674 77.7179 18.4977 77.492 18.206C77.6451 18.0842 77.8734 17.7937 77.8734 17.3107C77.8734 16.6359 77.403 16.0853 76.5257 16.0853C75.7825 16.0853 75.155 16.6933 74.997 17.4928C73.8064 18.472 72.5054 19.1074 70.6625 19.1074C68.8425 19.1074 67.8998 18.1569 67.8998 16.1388C68.3264 16.2685 69.4364 16.4256 70.1692 16.4256C73.2452 16.4256 75.3409 15.0221 75.3409 12.2099C75.3409 10.6988 74.0199 9.11205 71.4058 9.11205H71.3984C67.9603 9.11205 66.0372 11.2988 65.1946 13.7044C64.9591 13.6465 64.7233 13.5913 64.4858 13.538C64.6753 13.0053 64.8114 12.3861 64.8114 11.7032C64.8114 10.513 64.0786 9.11199 62.1178 9.11199C60.7521 9.11199 59.4565 10.0088 58.5589 11.3554C58.7814 10.4773 58.9293 9.89379 58.9409 9.856C58.9976 9.62577 58.9016 9.36891 58.5461 9.36891H56.5332C56.2484 9.36891 56.044 9.46951 55.9612 9.79985C55.9079 10.0168 55.2171 12.7401 54.5423 15.3932C54.1206 17.0472 51.9282 19.1074 49.1695 19.1074C47.3516 19.1074 46.4118 18.0954 46.4118 16.0756C46.8868 16.2639 47.9463 16.4256 48.6762 16.4256C51.878 16.4256 53.8503 15.0222 53.8503 12.2099C53.8503 10.6988 52.5294 9.11207 49.917 9.11207H49.909C46.0389 9.11207 43.6677 12.1321 43.2638 15.5559C43.0966 16.9792 41.901 18.9325 40.6041 18.9325C39.9726 18.9325 39.6196 18.5352 39.6196 17.8577C39.6196 17.2739 40.0288 15.8462 40.4787 14.0534C40.629 13.4558 40.8566 12.5423 41.1098 11.5287H43.2175C43.5286 11.5287 43.7123 11.4011 43.7832 11.1077C43.8844 10.683 44.0683 9.94328 44.1209 9.7421C44.1904 9.47785 44.0364 9.27583 43.7434 9.27583H41.6702C41.6702 9.27583 42.6231 5.45786 42.646 5.35973C42.739 4.97118 42.4146 4.74751 42.0769 4.81947C42.0769 4.81947 40.4771 5.13315 40.1791 5.19638C39.8823 5.25532 39.6506 5.42081 39.541 5.85345C39.5277 5.90703 38.6934 9.27583 38.6934 9.27583H37.034C36.7191 9.27583 36.5369 9.40554 36.4671 9.69934C36.3645 10.122 36.1787 10.8626 36.1268 11.0637C36.0582 11.328 36.2125 11.5287 36.505 11.5287H38.1344C38.1232 11.5774 37.5467 13.7809 37.0799 15.7548C36.861 16.7057 36.1249 18.9262 34.9193 18.9262C34.2001 18.9262 33.8964 18.5608 33.8964 17.7787C33.8964 16.5469 35.1026 13.4628 35.1026 12.0648C35.1026 10.1959 34.105 9.11196 32.059 9.11196C30.7683 9.11196 29.4328 9.94895 28.8654 10.6828C28.8654 10.6828 29.0368 10.0836 29.0979 9.85087C29.1589 9.60648 29.0277 9.36876 28.7098 9.36876H26.7102C26.2827 9.36876 26.1669 9.59648 26.1051 9.84711C26.0788 9.9489 25.3591 12.7908 24.6683 15.5186C24.1933 17.3871 23.045 18.948 21.8163 18.948C21.1822 18.948 20.9021 18.549 20.9021 17.8708C20.9021 17.2869 21.2762 15.846 21.7269 14.0532C22.2727 11.8751 22.7527 10.081 22.8053 9.86947C22.8724 9.60061 22.7527 9.3687 22.4088 9.3687H20.3969C20.0331 9.3687 19.9002 9.55905 19.8249 9.82665C19.8249 9.82665 19.2579 11.9773 18.6584 14.3756C18.2242 16.1152 17.7434 17.8877 17.7434 18.7186C17.7434 20.2056 18.4062 21.3242 20.2337 21.3242C21.6416 21.3242 22.7578 20.606 23.6086 19.691C23.484 20.1872 23.4041 20.5009 23.395 20.5313C23.3221 20.8156 23.4104 21.0636 23.7435 21.0636H25.8019C26.1599 21.0636 26.2972 20.9203 26.3721 20.6061C26.4433 20.3077 27.9816 14.2327 27.9816 14.2327C28.3891 12.6003 29.3926 11.5198 30.8091 11.5198C31.4788 11.5198 32.0602 11.9669 31.9915 12.8314C31.9166 13.7864 30.7741 17.2126 30.7741 18.7153C30.7741 19.8523 31.1928 21.3243 33.3244 21.3243C34.7798 21.3243 35.8512 20.6241 36.6276 19.7219C36.9115 20.681 37.6676 21.3243 39.0518 21.3243C41.3528 21.3243 42.7403 19.9529 43.5535 18.5774C44.2317 20.1765 45.8154 21.3243 48.1387 21.3243C50.5059 21.3243 52.3382 20.3223 53.6365 18.9597C53.4031 19.878 53.2448 20.5024 53.2308 20.5543C53.1564 20.8406 53.2817 21.0683 53.6177 21.0683H55.6559C55.9332 21.0683 56.133 20.9246 56.2047 20.6282C56.2402 20.4852 56.5356 19.3419 56.9527 17.7184C57.7477 14.6126 59.0252 11.3894 60.9446 11.3894C61.6224 11.3894 61.9014 11.7684 61.9014 12.3689C61.9014 12.6503 61.8198 12.893 61.7474 13.0268C60.8172 12.8402 60.0685 13.3002 60.0685 14.2993C60.0685 14.9502 60.7506 15.5412 61.6697 15.5412C62.3727 15.5412 62.9546 15.3691 63.4176 15.0549C63.8496 15.145 64.314 15.2456 64.782 15.3533C64.7109 15.8204 64.6748 16.28 64.6748 16.7131C64.6748 19.2079 66.54 21.3244 69.7169 21.3244C72.2086 21.3244 73.8035 20.4853 75.3008 19.2365C76.0104 20.4019 77.8027 21.3428 80.152 21.3428C83.37 21.3428 85.1979 19.6604 85.1979 17.4395C85.1979 15.4273 83.5529 14.6871 81.8567 14.0717C80.4786 13.5721 79.3285 13.2999 79.3285 12.3215C79.3285 11.5178 79.9584 11.1525 81.0351 11.1525C81.7341 11.1525 82.2564 11.3021 82.5395 11.3811C82.8175 12.0809 83.3919 12.8539 84.3732 12.8539C85.2037 12.8539 85.5765 12.1956 85.5765 11.5872C85.5765 9.85666 82.7084 9.67632 82.7084 5.9646C82.7084 3.65857 84.0069 1.75686 86.7009 1.75686C88.5714 1.75686 89.7943 2.94746 89.7943 4.86876C89.7943 6.45419 88.8354 9.27568 88.8354 9.27568H87.2082C86.8962 9.27568 86.7117 9.40539 86.6405 9.69919C86.5379 10.1218 86.3541 10.8624 86.3003 11.0636C86.2333 11.3279 86.3847 11.5286 86.6802 11.5286H88.268C88.268 11.5286 86.626 17.6128 86.626 18.7187C86.626 20.2057 87.4599 21.3227 89.2848 21.3227C91.8697 21.3227 93.4844 19.6388 94.187 17.186C94.2396 16.9957 94.1341 16.8427 93.9417 16.8427H92.9572C92.7605 16.8427 92.6447 16.954 92.5962 17.1464C92.3733 18.0171 91.8221 18.9322 90.7358 18.9322C90.1042 18.9322 89.7508 18.5349 89.7508 17.8575C89.7508 17.2736 90.1365 15.9046 90.6108 14.0531C90.8358 13.1725 91.2381 11.5285 91.2381 11.5285" fill="white"/>
<path d="M23.9124 6.18282C23.84 7.25171 22.9491 8.11914 21.9223 8.11914C20.8964 8.11914 20.1217 7.25171 20.195 6.18282C20.2695 5.11561 21.1592 4.24957 22.1835 4.24957C23.2122 4.24957 23.984 5.11561 23.9124 6.18282Z" fill="white"/>
<path d="M9.57522 -0.000301574C3.32025 -0.000301574 0 4.21434 0 8.80866C0 10.9419 1.13059 13.5995 2.94112 14.4452C3.21671 14.574 3.36236 14.5175 3.42483 14.2516C3.47331 14.0487 3.71871 13.0618 3.82793 12.6009C3.86395 12.4538 3.84614 12.3275 3.72656 12.182C3.13066 11.4556 2.65058 10.1124 2.65058 8.86221C2.65058 5.65308 5.07064 2.54775 9.19291 2.54775C12.7551 2.54775 15.246 4.98269 15.246 8.46739C15.246 12.4051 13.2691 15.1318 10.6917 15.1318C9.26858 15.1318 8.20339 13.9524 8.54471 12.5008C8.95482 10.7719 9.74569 8.90309 9.74569 7.65707C9.74569 6.5375 9.14806 5.60562 7.91147 5.60562C6.45771 5.60562 5.28865 7.1168 5.28865 9.14145C5.28865 10.4302 5.72318 11.3008 5.72318 11.3008C5.72318 11.3008 4.28758 17.4008 4.02525 18.5362C3.57767 20.463 4.08379 23.5848 4.12846 23.8575C4.15117 24.0039 4.31307 24.0533 4.40453 23.9302C4.5457 23.7412 6.27702 21.1337 6.76667 19.2482C6.94046 18.5679 7.66716 15.7885 7.66716 15.7885C8.14218 16.6937 9.52028 17.4592 10.9889 17.4592C15.3594 17.4592 18.5103 13.4209 18.5103 8.40678C18.5103 3.59768 14.6034 -0.000157676 9.57532 -0.000157676" fill="white"/>
</svg>
