<svg xmlns="http://www.w3.org/2000/svg" fill="none" viewBox="0 0 107 24" width="107" height="24"><path fill="#009FD9" d="M18.449 3.104 9.808.04a1.14 1.14 0 0 0-.602 0L.567 3.104A.88.88 0 0 0 0 3.9v9.773c0 2.284 1.328 4.178 3.063 5.79 1.735 1.61 3.93 3.009 5.931 4.39.283.195.708.195 1.01 0 2.018-1.381 4.195-2.78 5.93-4.39 1.735-1.612 3.063-3.506 3.063-5.79V3.9c.018-.355-.23-.673-.549-.797m-7.79 11.473c0 .85-.23 1.682-.673 2.407l-.478.815-.479-.815a4.6 4.6 0 0 1-.672-2.407v-3.878c.566-.761 1.416-1.044 2.301-1.044zm3.558-5.79H4.78v-2.09h9.437z"/><path fill="#fff" d="M85.32 9.885c2.302 0 3.753 1.133 3.753 3.382v4.55h-2.106v-.903c-.425.637-1.329 1.115-2.444 1.115-1.806 0-2.903-1.168-2.903-2.443 0-1.452 1.115-2.249 2.531-2.443 0 0 2.32-.283 2.656-.319 0-.956-.885-1.169-1.77-1.169-.903 0-1.629.319-2.195.69l-.834-1.433c.868-.62 2.002-1.027 3.312-1.027m-.443 4.567c-.584.089-1.044.408-1.044 1.027 0 .479.354.939 1.097.939.956 0 1.948-.46 1.948-1.895v-.354zM36.313 10.947c.584-.762 1.434-1.045 2.32-1.045 1.84 0 3.15 1.222 3.15 3.01v4.922h-2.177v-4.25c0-1.115-.584-1.734-1.576-1.734-.938 0-1.717.584-1.717 1.752v4.232h-2.178V6.945h2.178zm28.805 1.965v4.922h-2.16v-4.25c0-1.115-.584-1.734-1.575-1.734-.939 0-1.718.584-1.718 1.752v4.232h-2.177v-4.25c0-1.115-.584-1.734-1.576-1.734-.938 0-1.717.584-1.717 1.752v4.232h-2.16v-7.72h2.124v.903c.584-.814 1.452-1.115 2.373-1.115 1.168 0 2.124.496 2.673 1.328.62-.974 1.682-1.328 2.744-1.328 1.895 0 3.187 1.222 3.17 3.01m9.756 1.044c0 2.32-1.682 4.055-3.913 4.055-1.115 0-1.894-.425-2.425-1.045v.85H66.41V6.946h2.16v3.965c.531-.602 1.292-1.009 2.372-1.009 2.249 0 3.93 1.753 3.93 4.054m-6.356 0c0 1.222.85 2.125 2.071 2.125 1.293 0 2.09-.956 2.09-2.125 0-1.186-.797-2.124-2.09-2.124-1.221 0-2.071.92-2.071 2.124m28.912-2.602-1.576 1.257c-.496-.496-1.009-.78-1.717-.78-1.133 0-2.019.85-2.019 2.125 0 1.293.886 2.125 2.019 2.125.708 0 1.31-.301 1.753-.779l1.558 1.275c-.762.938-1.895 1.452-3.24 1.452-2.585 0-4.303-1.718-4.303-4.055S91.64 9.92 94.208 9.92c1.328-.018 2.478.513 3.222 1.434m8.357-1.24L102.848 13l3.381 4.834h-2.656l-2.248-3.488-.992.974v2.514h-2.177V6.963h2.177v6.02l2.816-2.869zm-57.329 6.888c-.584.761-1.434 1.044-2.32 1.044-1.84 0-3.15-1.221-3.15-3.01v-4.921h2.177v4.249c0 1.115.584 1.735 1.576 1.735.938 0 1.717-.585 1.717-1.753v-4.232h2.178v7.72h-2.178zm26.7-6.887h1.185V7.813h2.178v2.302h2.408v1.84h-2.408v3.258c0 .55.39.868.814.868.46 0 1.045-.265 1.045-.265l.708 1.646s-.743.549-2.407.549c-1.098 0-2.32-.797-2.32-2.337v-3.718h-1.186zM29.78 9.902v4.904c0 .85-.23 1.682-.673 2.408l-.496.815-.496-.815a4.6 4.6 0 0 1-.672-2.408v-3.86c.584-.778 1.451-1.044 2.337-1.044m-5.95-.885V6.945h9.561v2.072z"/></svg>