<svg xmlns="http://www.w3.org/2000/svg" fill="none"><g clip-path="url(#a)"><path fill="#FF004F" d="M15.67 8.663a9.36 9.36 0 0 0 5.474 1.76V6.478a5.5 5.5 0 0 1-1.15-.121v3.104a9.36 9.36 0 0 1-5.473-1.759v8.048c0 4.026-3.25 7.289-7.26 7.289a7.2 7.2 0 0 1-4.042-1.233A7.22 7.22 0 0 0 8.409 24c4.01 0 7.262-3.263 7.262-7.29zm1.418-3.978a5.5 5.5 0 0 1-1.418-3.218V.96h-1.089a5.52 5.52 0 0 0 2.508 3.725M5.756 18.718a3.33 3.33 0 0 1-.678-2.019 3.328 3.328 0 0 1 4.329-3.178V9.49a7 7 0 0 0-1.15-.067v3.138a3.328 3.328 0 0 0-4.329 3.178c0 1.303.744 2.43 1.828 2.979"/><path fill="#000" d="M14.52 7.703a9.36 9.36 0 0 0 5.475 1.759V6.358a5.5 5.5 0 0 1-2.907-1.673A5.52 5.52 0 0 1 14.581.96H11.72v15.75a3.33 3.33 0 0 1-3.322 3.324 3.31 3.31 0 0 1-2.643-1.316 3.34 3.34 0 0 1-1.827-2.979 3.328 3.328 0 0 1 4.329-3.178V9.423c-3.94.082-7.108 3.313-7.108 7.288a7.28 7.28 0 0 0 2.07 5.096A7.2 7.2 0 0 0 7.26 23.04c4.01 0 7.26-3.263 7.26-7.29z"/><path fill="#00F2EA" d="M19.995 6.358v-.84a5.46 5.46 0 0 1-2.907-.833 5.5 5.5 0 0 0 2.907 1.673M14.58.96a6 6 0 0 1-.06-.453V0H10.57v15.75a3.33 3.33 0 0 1-3.321 3.324 3.3 3.3 0 0 1-1.494-.356 3.31 3.31 0 0 0 2.643 1.316 3.33 3.33 0 0 0 3.322-3.323V.96zM8.257 9.423V8.53a7 7 0 0 0-.996-.068C3.25 8.462 0 11.725 0 15.751a7.29 7.29 0 0 0 3.219 6.056 7.28 7.28 0 0 1-2.07-5.096c0-3.974 3.169-7.206 7.108-7.288"/><path fill="#FF004F" d="M65.774 19.74c2.87 0 5.195-2.318 5.195-5.176s-2.325-5.176-5.195-5.176h-.782c2.869 0 5.195 2.318 5.195 5.176s-2.326 5.176-5.195 5.176z"/><path fill="#00F2EA" d="M64.92 9.388h-.782c-2.869 0-5.195 2.318-5.195 5.176s2.326 5.176 5.195 5.176h.783c-2.87 0-5.196-2.318-5.196-5.176s2.326-5.176 5.196-5.176"/><path fill="#fff" d="M25.425 7.048V9.67h3.06v9.998h3.06V9.742h2.49l.855-2.694zm25.05 0V9.67h3.06v9.998h3.06V9.742h2.49l.854-2.694zM35.46 8.537a1.49 1.49 0 0 1 1.493-1.49c.826 0 1.494.668 1.494 1.49s-.668 1.489-1.494 1.489a1.49 1.49 0 0 1-1.493-1.49m0 2.552h2.987v8.58H35.46zm4.269-4.041v12.62h2.989v-3.26l.925-.852 2.917 4.183h3.202l-4.199-6.097 3.772-3.688h-3.63l-2.987 2.978V7.048zm32.236 0v12.62h2.99v-3.26l.924-.852 2.918 4.183H82l-4.199-6.097 3.772-3.688h-3.63l-2.989 2.978V7.048zM64.991 19.74c2.87 0 5.196-2.318 5.196-5.176S67.86 9.388 64.99 9.388h-.07c-2.87 0-5.196 2.318-5.196 5.176s2.326 5.176 5.196 5.176zm-2.562-5.176a2.52 2.52 0 0 1 2.528-2.517 2.52 2.52 0 0 1 2.526 2.517 2.52 2.52 0 0 1-2.526 2.517 2.52 2.52 0 0 1-2.527-2.517"/></g><defs><clipPath id="a"><path fill="#fff" d="M0 0h82v24H0z"/></clipPath></defs></svg>