<svg width="24" height="24" viewBox="0 0 24 24" fill="none" xmlns="http://www.w3.org/2000/svg">
<mask id="path-1-outside-1_2036_2195" maskUnits="userSpaceOnUse" x="0" y="0" width="26" height="25" fill="black">
<rect fill="white" width="24" height="24"/>
<path d="M15.6904 10.74L24.254 1H22.2254L14.7865 9.45542L8.8494 1H2L10.98 13.7873L2 24H4.0286L11.8793 15.0689L18.1506 24H25M4.76077 2.49682H7.87727L22.2239 22.5767H19.1066"/>
</mask>
<path d="M15.6904 10.74L24.254 1H22.2254L14.7865 9.45542L8.8494 1H2L10.98 13.7873L2 24H4.0286L11.8793 15.0689L18.1506 24H25M4.76077 2.49682H7.87727L22.2239 22.5767H19.1066" fill="black"/>
<path d="M24.254 1L24.6295 1.33015L25.3594 0.5L24.254 0.5V1ZM22.2254 1V0.5H21.9994L21.85 0.669731L22.2254 1ZM14.7865 9.45542L14.3773 9.74274L14.7423 10.2626L15.1619 9.78569L14.7865 9.45542ZM8.8494 1L9.2586 0.712676L9.10927 0.5H8.8494V1ZM2 1V0.5H1.0379L1.59082 1.28735L2 1ZM10.98 13.7873L11.3555 14.1175L11.6153 13.822L11.3891 13.5L10.98 13.7873ZM2 24L1.62451 23.6698L0.894552 24.5H2V24ZM4.0286 24V24.5H4.2548L4.40414 24.3301L4.0286 24ZM11.8793 15.0689L12.2885 14.7815L11.9233 14.2615L11.5037 14.7388L11.8793 15.0689ZM18.1506 24L17.7414 24.2873L17.8907 24.5H18.1506V24ZM7.87727 2.49682L8.2841 2.20615L8.13454 1.99682H7.87727V2.49682ZM22.2239 22.5767V23.0767H23.1956L22.6307 22.286L22.2239 22.5767ZM15.6904 10.74L16.0659 11.0702L24.6295 1.33015L24.254 1L23.8785 0.669851L15.3149 10.4099L15.6904 10.74ZM24.254 1V0.5H22.2254V1V1.5H24.254V1ZM22.2254 1L21.85 0.669731L14.4111 9.12515L14.7865 9.45542L15.1619 9.78569L22.6008 1.33027L22.2254 1ZM14.7865 9.45542L15.1957 9.1681L9.2586 0.712676L8.8494 1L8.4402 1.28732L14.3773 9.74274L14.7865 9.45542ZM8.8494 1V0.5H2V1V1.5H8.8494V1ZM2 1L1.59082 1.28735L10.5708 14.0747L10.98 13.7873L11.3891 13.5L2.40918 0.71265L2 1ZM10.98 13.7873L10.6045 13.4571L1.62451 23.6698L2 24L2.37549 24.3302L11.3555 14.1175L10.98 13.7873ZM2 24V24.5H4.0286V24V23.5H2V24ZM4.0286 24L4.40414 24.3301L12.2548 15.399L11.8793 15.0689L11.5037 14.7388L3.65306 23.6699L4.0286 24ZM11.8793 15.0689L11.4701 15.3562L17.7414 24.2873L18.1506 24L18.5598 23.7127L12.2885 14.7815L11.8793 15.0689ZM18.1506 24V24.5H25V24V23.5H18.1506V24ZM4.76077 2.49682V2.99682H7.87727V2.49682V1.99682H4.76077V2.49682ZM7.87727 2.49682L7.47044 2.78749L21.8171 22.8674L22.2239 22.5767L22.6307 22.286L8.2841 2.20615L7.87727 2.49682ZM22.2239 22.5767V22.0767H19.1066V22.5767V23.0767H22.2239V22.5767Z" fill="white" mask="url(#path-1-outside-1_2036_2195)"/>
</svg>
