<svg xmlns="http://www.w3.org/2000/svg" fill="none" viewBox="0 0 60 24"><path fill="#fff" d="m47.718 13.8.934-.21q.032-.005.092-.024c.258-.067.48-.23.617-.452a.98.98 0 0 0 .12-.743l-.003-.016a1 1 0 0 0-.16-.338 1.3 1.3 0 0 0-.38-.318 3.6 3.6 0 0 0-.542-.244l-1.024-.365q-.861-.311-1.73-.608c-.376-.13-.695-.245-.972-.33a3 3 0 0 1-.157-.046c-.334-.1-.57-.14-.769-.142a.94.94 0 0 0-.725.302 2 2 0 0 0-.132.162 2 2 0 0 0-.197.382 5 5 0 0 0-.28 1.699c.003.521.018 1.191.312 1.646a1 1 0 0 0 .28.295c.21.141.422.16.643.176.33.022.65-.056.968-.128l3.103-.698zM58.14 8.974a5.2 5.2 0 0 0-1.015-1.407 2.007 2.007 0 0 0-.348-.26 2 2 0 0 0-.192-.09.947.947 0 0 0-.788.039c-.177.086-.37.225-.627.457-.035.034-.08.073-.12.11-.21.193-.446.432-.726.71q-.648.637-1.282 1.285l-.758.765q-.209.21-.377.451a1.3 1.3 0 0 0-.2.45c-.02.123-.017.25.009.372l.004.016c.06.253.218.474.441.615.224.142.495.194.758.145a1 1 0 0 0 .093-.018l4.038-.909c.32-.071.642-.137.928-.3.192-.106.374-.214.5-.43a.95.95 0 0 0 .118-.386c.062-.536-.225-1.144-.456-1.615m-7.23 1.653c.293-.358.293-.891.319-1.328.089-1.457.18-2.914.255-4.372.028-.553.089-1.098.055-1.654-.028-.459-.031-.986-.329-1.363-.525-.665-1.646-.61-2.41-.507a9.325 9.325 0 0 0-1.39.313c-.734.234-1.766.663-1.94 1.487-.1.465.135.94.315 1.366.22.514.52.978.792 1.462.723 1.28 1.458 2.55 2.191 3.823.22.38.458.86.882 1.058q.042.018.086.032c.19.07.398.083.595.038l.035-.007a1.04 1.04 0 0 0 .478-.28 1 1 0 0 0 .067-.068m-.35 3.902a.93.93 0 0 0-.463-.335.96.96 0 0 0-.706.046q-.096.047-.183.111a2.4 2.4 0 0 0-.44.438c-.031.04-.062.093-.1.128l-.65.87a99 99 0 0 0-1.091 1.472c-.236.321-.438.592-.6.83-.03.046-.061.096-.09.137-.192.289-.301.5-.357.69a.9.9 0 0 0-.04.388 1 1 0 0 0 .139.384q.058.088.126.17.146.165.326.293c.449.303.94.522 1.456.69.43.14.876.223 1.328.247a1.8 1.8 0 0 0 .65-.092c.131-.048.251-.122.352-.219a.9.9 0 0 0 .214-.328c.075-.182.125-.413.158-.756.002-.05.01-.108.015-.161.026-.285.038-.621.056-1.014q.048-.907.076-1.812l.042-1.076c.01-.247.002-.521-.069-.767a1.1 1.1 0 0 0-.149-.334m7.333 1.682c-.135-.145-.327-.29-.63-.468-.044-.024-.096-.055-.143-.083-.252-.148-.556-.303-.91-.49a97 97 0 0 0-1.643-.858l-.973-.503c-.05-.014-.102-.05-.15-.072a2.5 2.5 0 0 0-.59-.205 1.122 1.122 0 0 0-.354-.014.94.94 0 0 0-.516.253.9.9 0 0 0-.265.498q-.022.182.014.361a2.5 2.5 0 0 0 .283.72l.52.95q.432.801.881 1.596c.194.346.355.642.506.887l.086.139c.184.294.33.48.48.614a.94.94 0 0 0 .756.248q.108-.012.212-.037.217-.056.414-.158c.395-.216.759-.481 1.082-.79a5.6 5.6 0 0 0 1-1.242 1.5 1.5 0 0 0 .096-.205 2 2 0 0 0 .065-.198 2 2 0 0 0 .036-.207.895.895 0 0 0-.257-.737z"/><path fill="#fff" fill-rule="evenodd" d="M24.382 6.984c0-.782.654-1.42 1.443-1.42.778 0 1.41.638 1.444 1.431V18.08c0 .782-.655 1.42-1.444 1.42a1.48 1.48 0 0 1-1.026-.416 1.375 1.375 0 0 1-.417-1.003zM23.04 13.83c-.011.22-.067.628-.36.925-.316.32-.744.396-.993.396a863 863 0 0 1-3.094.011q-1.548.004-3.095.011a2.56 2.56 0 0 0 1.262 1.497c.124.077.553.298 1.082.298.565 0 1.06-.177 1.546-.419l.04-.02c.337-.17.685-.346 1.053-.41.36-.054.744.012 1.026.254.338.287.474.704.35 1.134-.147.484-.564.903-1.004 1.156a5 5 0 0 1-.79.363 6.1 6.1 0 0 1-2.175.33c-.18 0-.372 0-.564-.022a5 5 0 0 1-.597-.11 4.3 4.3 0 0 1-.903-.297 5 5 0 0 1-.823-.451q-.388-.272-.721-.606a5.5 5.5 0 0 1-.598-.726c-.608-.903-.89-2.015-.834-3.094a5.3 5.3 0 0 1 1.06-2.971c.07-.109.152-.2.23-.286q.05-.056.097-.111c.807-.961 1.886-1.265 2.331-1.39l.025-.008c.903-.25 1.86-.25 2.762 0 .215.055 1.421.418 2.357 1.398.045.044.17.187.327.397.4.53.694 1.13.867 1.766l.001.006c.068.241.135.572.135.98m-6.618-1.816a2.47 2.47 0 0 0-.88 1.387h4.917a2.55 2.55 0 0 0-.891-1.387 2.6 2.6 0 0 0-1.579-.55 2.57 2.57 0 0 0-1.568.55zm18.694-2.917c-1.286 0-2.458.562-3.293 1.475v-.033a1.39 1.39 0 0 0-.457-.963 1.46 1.46 0 0 0-1.02-.375c-.376.01-.734.164-.996.429a1.38 1.38 0 0 0-.402.986v10.578a1.37 1.37 0 0 0 .421.997 1.45 1.45 0 0 0 1.023.412 1.48 1.48 0 0 0 1.022-.412 1.371 1.371 0 0 0 .42-.997v-3.302c.835.903 1.996 1.475 3.293 1.475 2.582 0 4.68-2.279 4.68-5.119-.012-2.84-2.109-5.151-4.691-5.151m-.631 7.97c-1.466 0-2.661-1.245-2.661-2.796 0-1.563 1.183-2.807 2.66-2.807 1.466 0 2.661 1.244 2.661 2.807-.011 1.551-1.195 2.795-2.66 2.795m-23.802-2.081-.473 1.013c-.215.44-.43.891-.632 1.343l-.196.423c-.902 1.952-1.97 4.27-4.302 4.761-1.128.242-2.83-.088-3.462-1.123-.631-1.045.304-2.245 1.51-1.97.191.041.378.132.567.224.315.153.634.307.979.238.327-.054.53-.286.789-.583.36-.407.518-.837.586-1.09l-.017-.038-.017-.039c-.293-.533-.55-1.01-.764-1.407q-.18-.338-.364-.673l-.49-.909c-.361-.665-.421-.774-.58-1.061q-.526-.967-1.105-1.905c-.417-.683-.846-1.442-.496-2.246.131-.311.378-.563.691-.706.313-.142.67-.165 1-.064.725.214 1.047.887 1.347 1.515q.081.172.164.334c.485.936.958 1.872 1.431 2.807q.065.141.183.374.106.209.235.474l.125.254q.074.15.123.252.331-.799.665-1.596.334-.796.665-1.596a3 3 0 0 1 .138-.315c.067-.146.152-.332.246-.544l.095-.224c.292-.694.645-1.529 1.427-1.757.277-.078.573-.07.846.022.273.093.509.266.676.496.169.23.236.495.248.76.009.584-.28 1.21-.53 1.748q-.092.197-.169.375l-.03.065c-.069.15-.256.56-.579 1.234q-.173.362-.341.729z" clip-rule="evenodd"/></svg>