<svg xmlns="http://www.w3.org/2000/svg" fill="none"><g clip-path="url(#a)"><path fill="#fff" fill-opacity=".96" d="M59.414 8.4a6.6 6.6 0 0 0-1.286-1.785q-.159-.15-.34-.275a3 3 0 0 0-.282-.19h-.02l-.026-.015a4 4 0 0 0-.326-.15h-.028a2.5 2.5 0 0 0-.877-.164h-.125a2.4 2.4 0 0 0-.945.254c-.347.18-.666.407-.945.675h-.018l-.017.017a.2.2 0 0 1-.037.033l-.054.05c-.192.176-.385.366-.608.59l-.158.16q-.301.294-.598.592c.062-1.042.128-2.109.181-3.167 0-.135.014-.275.026-.408q.06-.695.028-1.392v-.113c-.028-.529-.073-1.326-.615-2.009C51.946.595 51.153 0 49.64 0a8 8 0 0 0-1.021.075q-.836.116-1.64.366C45.3.98 44.328 1.82 44.084 2.961c-.178.846.142 1.582.351 2.07l.045.104q.285.643.655 1.24l.204.356q.78 1.384 1.582 2.756l-.81-.275-.207-.071c-.3-.108-.565-.2-.812-.277l-.068-.019-.048-.013h-.045a4.1 4.1 0 0 0-1.156-.201h-.061a2.4 2.4 0 0 0-.904.176c-.316.13-.6.324-.833.57a4 4 0 0 0-.22.276l-.017.022-.017.025q-.215.32-.348.678v.017c-.24.69-.36 1.413-.354 2.14-.722-2.755-3.088-4.793-5.88-4.793a5.85 5.85 0 0 0-2.882.767 2.9 2.9 0 0 0-1.756-.655 2.9 2.9 0 0 0-1.794.553v-1.45a2.79 2.79 0 0 0-.858-1.94 2.94 2.94 0 0 0-2.001-.816 2.9 2.9 0 0 0-2.025.824 2.76 2.76 0 0 0-.835 1.977v3.012a3 3 0 0 0-.229-.262 6.8 6.8 0 0 0-3.004-1.778 6.66 6.66 0 0 0-3.525.003h-.03a6.2 6.2 0 0 0-2.509 1.3 2.74 2.74 0 0 0-1.034-1.132 2.85 2.85 0 0 0-1.497-.416q-.405 0-.792.113c-1.416.416-1.983 1.756-2.328 2.555q-.046.111-.09.21c-.085.198-.167.374-.232.515a6 6 0 0 0-.182.417c-.04.107-.073.18-.112.275a144 144 0 0 0-.717-1.397l-.142-.293C6.21 9.38 5.675 8.262 4.345 7.87a2.87 2.87 0 0 0-2.006.14A2.76 2.76 0 0 0 .948 9.422c-.643 1.48.155 2.786.583 3.486.306.497.699 1.155 1.067 1.839.158.275.218.392.566 1.05l.051.091.442.827c.105.19.22.407.356.662.145.275.31.572.49.903q-.044.064-.099.127l-.025.03-.04-.019a3.8 3.8 0 0 0-.891-.309 3 3 0 0 0-.666-.074c-.49 0-.971.125-1.396.364a2.76 2.76 0 0 0-1.022.994 2.63 2.63 0 0 0 .038 2.727C1.25 23.498 2.98 24 4.325 24q.537.002 1.061-.107c3.022-.64 4.33-3.474 5.284-5.543l.192-.417q.295-.659.614-1.306l.19-.406c.193.603.476 1.175.84 1.698q.339.49.754.919.423.42.914.763c.33.224.683.416 1.05.576q.565.256 1.172.386.372.09.754.135.348.036.699.03h.206c.839.001 1.671-.139 2.461-.413a6.3 6.3 0 0 0 1.05-.447 3.7 3.7 0 0 0 1.416-1.417c.087.673.422 1.291.943 1.741s1.191.7 1.887.704c.613 0 1.209-.193 1.7-.551v.871c0 .738.3 1.447.837 1.969a2.9 2.9 0 0 0 2.022.815c.758 0 1.486-.293 2.022-.815s.837-1.23.837-1.969v-.76a5.8 5.8 0 0 0 1.877.308c3.358 0 6.09-2.911 6.096-6.489q.104.326.282.621c.18.276.416.513.694.697.4.26.867.404 1.348.416h.22a5 5 0 0 0 1.107-.154h.06l1.565-.345q-.37.495-.719.973l-.13.18c-.19.253-.351.476-.495.691l-.04.06-.029.042-.013.02v.019c-.225.318-.4.666-.522 1.034-.099.31-.13.638-.09.962.044.33.16.648.34.931v.014c.065.1.138.196.212.275l.017.017.014.02q.121.135.255.258.156.15.334.277a7.2 7.2 0 0 0 1.817.867 6.7 6.7 0 0 0 1.699.317h.165q.142.002.283-.014a3 3 0 0 0 .35-.046h.051q.179-.04.352-.1h.017c.317-.114.607-.293.849-.523.233-.231.415-.506.535-.807.137-.362.219-.74.244-1.125v-.05a.3.3 0 0 0 0-.05v-.063c.024-.276.036-.53.05-.827v-.424l.097.17.11.202c.153.275.283.507.419.727l.034.055.031.05v.017l.015.022c.217.327.482.62.786.873.244.223.533.393.85.5h.017a2.45 2.45 0 0 0 1.002.107h.026q.182-.02.362-.061h.05q.176-.045.343-.11.2-.074.388-.173a6.5 6.5 0 0 0 1.387-1.012 7 7 0 0 0 1.246-1.555q.196-.344.295-.725v-.047q.042-.171.062-.347v-.036a2.3 2.3 0 0 0-.113-.97 2.3 2.3 0 0 0-.522-.827 4.1 4.1 0 0 0-.93-.706h-.021l-.023-.013-.045-.025-.057-.036c-.226-.13-.478-.276-.744-.402L56.87 14a29 29 0 0 0-1.068-.552l1.551-.35h.06c.441-.08.866-.229 1.26-.438a2.5 2.5 0 0 0 1.022-.948c.16-.281.256-.592.283-.913.124-.994-.306-1.874-.563-2.4z"/><path fill="#FF1A1A" d="m47.718 13.8.934-.21q.032-.007.092-.025c.258-.067.48-.23.617-.452a.98.98 0 0 0 .12-.743l-.003-.016a1 1 0 0 0-.16-.338 1.3 1.3 0 0 0-.38-.318 3.6 3.6 0 0 0-.542-.244l-1.024-.365q-.861-.312-1.73-.608c-.376-.13-.695-.245-.972-.33a3 3 0 0 1-.157-.046c-.334-.1-.57-.14-.769-.142a.94.94 0 0 0-.725.302q-.07.078-.132.162-.12.18-.197.382a5 5 0 0 0-.28 1.699c.003.521.018 1.191.312 1.646a1 1 0 0 0 .28.295c.21.141.422.16.643.176.33.022.65-.056.968-.128l3.103-.698zM58.14 8.972a5.2 5.2 0 0 0-1.015-1.407 2.004 2.004 0 0 0-.348-.26 2 2 0 0 0-.192-.09.947.947 0 0 0-.788.039c-.177.086-.37.225-.627.457-.035.034-.08.073-.12.11-.21.193-.446.432-.726.71q-.648.637-1.282 1.285l-.758.765q-.209.21-.377.451a1.3 1.3 0 0 0-.2.45c-.02.123-.017.25.009.372l.004.016c.06.253.218.474.441.616.224.141.495.193.758.144a1 1 0 0 0 .093-.018l4.038-.909c.32-.071.642-.137.928-.299.192-.107.374-.215.5-.431a.95.95 0 0 0 .118-.386c.062-.536-.225-1.144-.456-1.615m-7.23 1.653c.293-.358.293-.89.319-1.328.089-1.457.18-2.914.255-4.372.028-.553.089-1.098.055-1.654-.028-.459-.031-.986-.329-1.363-.525-.665-1.646-.61-2.41-.507a9.335 9.335 0 0 0-1.39.313c-.734.234-1.766.663-1.94 1.487-.1.465.135.94.315 1.366.22.514.52.978.792 1.462.723 1.28 1.458 2.55 2.191 3.823.22.38.458.86.882 1.058q.042.017.086.032c.19.07.398.083.595.038l.035-.007a1.04 1.04 0 0 0 .478-.28 1 1 0 0 0 .067-.068m-.35 3.902a.93.93 0 0 0-.463-.335.96.96 0 0 0-.706.046 1.3 1.3 0 0 0-.183.111 2.4 2.4 0 0 0-.44.438c-.031.04-.062.093-.1.128l-.65.87a99 99 0 0 0-1.091 1.472c-.236.321-.438.592-.6.83-.03.046-.061.096-.09.137-.192.289-.301.5-.357.69a.9.9 0 0 0-.04.388 1 1 0 0 0 .139.384q.058.089.126.17.146.165.326.292c.449.304.94.523 1.456.692.43.138.876.222 1.328.247a1.8 1.8 0 0 0 .65-.093c.131-.048.251-.122.352-.219a.9.9 0 0 0 .214-.328c.075-.182.125-.413.158-.756.002-.05.01-.108.015-.161.026-.285.038-.621.056-1.014q.048-.908.076-1.812l.042-1.076a2.5 2.5 0 0 0-.069-.767 1.1 1.1 0 0 0-.149-.334m7.333 1.682c-.135-.145-.327-.29-.63-.467l-.143-.084c-.252-.148-.556-.303-.91-.49a97 97 0 0 0-1.643-.858l-.973-.503c-.05-.014-.102-.05-.15-.072a2.5 2.5 0 0 0-.59-.205 1.122 1.122 0 0 0-.354-.014.95.95 0 0 0-.516.253.9.9 0 0 0-.265.498q-.022.183.014.361c.047.253.163.502.283.72l.52.95q.432.801.881 1.596c.194.346.355.642.506.887l.086.139c.184.294.33.48.48.613a.94.94 0 0 0 .756.249q.108-.013.212-.037.217-.056.414-.158c.395-.216.759-.481 1.082-.79a5.6 5.6 0 0 0 1-1.242 1.5 1.5 0 0 0 .096-.205 2 2 0 0 0 .065-.198 2 2 0 0 0 .036-.207.895.895 0 0 0-.257-.737z"/><path fill="#000" fill-rule="evenodd" d="M24.382 6.983c0-.782.654-1.42 1.443-1.42.778 0 1.41.638 1.444 1.431V18.08c0 .781-.655 1.42-1.444 1.42a1.48 1.48 0 0 1-1.026-.417 1.374 1.374 0 0 1-.417-1.003zm-1.342 6.846c-.011.22-.067.628-.36.925-.316.32-.744.396-.993.396a887 887 0 0 1-3.094.011q-1.548.004-3.095.011a2.56 2.56 0 0 0 1.262 1.497c.124.077.553.298 1.082.298.565 0 1.06-.177 1.546-.419l.04-.02c.337-.17.685-.346 1.053-.41.36-.054.744.012 1.026.254.338.287.474.704.35 1.134-.147.484-.564.903-1.004 1.156a5 5 0 0 1-.79.363 6.1 6.1 0 0 1-2.175.33c-.18 0-.372 0-.564-.021a5 5 0 0 1-.597-.11 4.3 4.3 0 0 1-.903-.298 5 5 0 0 1-.823-.451q-.388-.272-.721-.606a5.5 5.5 0 0 1-.598-.726c-.608-.903-.89-2.015-.834-3.094a5.3 5.3 0 0 1 1.06-2.971c.07-.108.152-.2.23-.286l.097-.111c.807-.961 1.886-1.265 2.331-1.39l.025-.008c.903-.25 1.86-.25 2.762 0 .215.055 1.421.418 2.357 1.398.045.044.17.187.327.397.4.53.694 1.13.867 1.766l.001.006c.068.242.135.572.135.98m-6.618-1.816a2.47 2.47 0 0 0-.88 1.387h4.917a2.55 2.55 0 0 0-.891-1.387 2.6 2.6 0 0 0-1.579-.55 2.57 2.57 0 0 0-1.568.55zm18.694-2.917c-1.286 0-2.458.562-3.293 1.475v-.033a1.39 1.39 0 0 0-.457-.963 1.46 1.46 0 0 0-1.02-.375c-.376.01-.734.164-.996.429a1.38 1.38 0 0 0-.402.986v10.578a1.37 1.37 0 0 0 .421.997 1.45 1.45 0 0 0 1.023.412 1.48 1.48 0 0 0 1.022-.412 1.37 1.37 0 0 0 .42-.997v-3.302c.835.903 1.996 1.475 3.293 1.475 2.582 0 4.68-2.279 4.68-5.119-.012-2.84-2.109-5.151-4.691-5.151m-.631 7.97c-1.466 0-2.661-1.245-2.661-2.796 0-1.563 1.183-2.807 2.66-2.807 1.466 0 2.661 1.244 2.661 2.807-.011 1.551-1.195 2.795-2.66 2.795m-23.802-2.081-.473 1.013c-.215.44-.43.891-.632 1.343l-.196.424c-.902 1.951-1.97 4.268-4.302 4.76-1.128.242-2.83-.088-3.462-1.123-.631-1.045.304-2.245 1.51-1.97.191.041.378.132.567.224.315.153.634.307.979.239.327-.055.53-.287.789-.584.36-.407.518-.837.586-1.09l-.017-.038-.017-.039c-.293-.533-.55-1.01-.764-1.407q-.18-.338-.364-.673l-.49-.909c-.361-.665-.421-.774-.58-1.061q-.526-.967-1.105-1.905c-.417-.683-.846-1.441-.496-2.246.131-.311.378-.563.691-.706.313-.142.67-.165 1-.064.725.214 1.047.887 1.347 1.515q.081.172.164.334c.485.936.958 1.872 1.431 2.807q.065.141.183.374.106.208.235.474l.125.254q.074.15.123.252.331-.799.665-1.596.334-.796.665-1.596c.006-.03.059-.143.138-.315.067-.146.152-.332.246-.544l.095-.224c.292-.694.645-1.529 1.427-1.757.277-.078.573-.07.846.022.273.093.509.266.676.496.169.23.236.495.248.76.009.584-.28 1.21-.53 1.748q-.092.198-.169.376l-.03.064c-.069.151-.256.56-.579 1.234q-.173.361-.341.729z" clip-rule="evenodd"/></g><defs><clipPath id="a"><path fill="#fff" d="M0 0h60v24H0z"/></clipPath></defs></svg>