<svg xmlns="http://www.w3.org/2000/svg" fill="none"><g clip-path="url(#a)"><path fill="#fff" d="M25.29 5.81a3.23 3.23 0 0 0-2.283-2.272C20.993 3 12.915 3 12.915 3s-8.078 0-10.091.538A3.23 3.23 0 0 0 .54 5.81C0 7.815 0 12 0 12s0 4.185.54 6.19a3.23 3.23 0 0 0 2.284 2.272C4.837 21 12.915 21 12.915 21s8.079 0 10.092-.538a3.23 3.23 0 0 0 2.284-2.273c.54-2.004.54-6.189.54-6.189s-.002-4.185-.54-6.19"/><path fill="#000" d="M10.33 15.857 17.04 12l-6.71-3.856z"/><path fill="#fff" d="m31.285 14.703-2.9-10.427h2.53l1.017 4.727q.387 1.746.572 2.978h.074q.128-.882.572-2.961l1.053-4.744h2.53l-2.937 10.427v5.002h-2.513v-5.002zM37.494 19.374q-.766-.514-1.09-1.6-.324-1.085-.324-2.887V13.25q0-1.821.37-2.924t1.155-1.608 2.06-.506q1.256 0 2.014.514.756.515 1.108 1.609.35 1.095.35 2.915v1.636q0 1.803-.342 2.895-.341 1.096-1.108 1.6-.765.506-2.077.506-1.352.002-2.116-.514m2.862-1.765q.212-.552.213-1.802v-3.511q0-1.214-.213-1.774t-.748-.56q-.519 0-.73.56-.213.562-.212 1.774v3.512q0 1.251.204 1.8.203.553.738.553t.748-.552M51.369 19.707h-1.995l-.22-1.38h-.056q-.813 1.562-2.44 1.562-1.126 0-1.662-.734-.536-.738-.536-2.3V8.435h2.55v8.274q0 .755.166 1.075.165.321.555.322.33 0 .637-.204c.205-.135.353-.306.453-.514V8.432h2.548z"/><path fill="#fff" d="M58.295 6.319h-2.53v13.387H53.27V6.32h-2.53v-2.04h7.555z"/><path fill="#fff" d="M64.444 19.707h-1.995l-.22-1.38h-.056q-.813 1.562-2.44 1.562-1.126 0-1.662-.734-.536-.738-.536-2.3V8.435h2.55v8.274q0 .755.166 1.075.165.321.555.322.33 0 .638-.204c.204-.135.352-.306.452-.514V8.432h2.548zM72.881 10.235q-.232-1.066-.748-1.545-.517-.48-1.423-.479a2.36 2.36 0 0 0-1.312.396q-.609.396-.942 1.04h-.019v-5.94h-2.456v15.998h2.105l.26-1.067h.055q.296.57.887.902.59.33 1.312.33 1.292 0 1.903-1.186.61-1.186.61-3.706v-1.784q-.001-1.891-.232-2.96m-2.337 4.6q0 1.23-.102 1.93-.1.7-.342.992a.79.79 0 0 1-.646.294q-.315.001-.583-.148a1.1 1.1 0 0 1-.434-.44v-6.398q.128-.46.445-.754c.208-.197.438-.294.682-.294q.39 0 .6.302.213.304.295 1.02.084.718.083 2.041v1.454zM76.73 15.484q0 1.085.064 1.628.064.541.268.792.203.247.627.247.572 0 .785-.442t.232-1.471l2.198.129q.02.146.02.404-.001 1.562-.86 2.335-.859.771-2.428.772-1.885.001-2.641-1.177-.758-1.177-.757-3.64v-1.969q0-2.536.785-3.706.784-1.168 2.687-1.168 1.312 0 2.014.478.702.479.989 1.49T81 12.982v1.93h-4.27zm.323-5.313q-.193.24-.26.782-.063.542-.063 1.646v.809h1.865v-.809q0-1.085-.074-1.646-.075-.562-.268-.792-.195-.229-.6-.23-.408.002-.6.24"/></g><defs><clipPath id="a"><path fill="#fff" d="M0 3h81v18H0z"/></clipPath></defs></svg>