<svg xmlns="http://www.w3.org/2000/svg" fill="none"><path fill="#0BC236" fill-rule="evenodd" d="M10.267 4.072s20.834 11.628 15 25.98c-14.914-2.372-15-25.98-15-25.98" clip-rule="evenodd" opacity=".3"/><path fill="#0BC236" fill-rule="evenodd" d="M37.483 4.072s-20.834 11.628-15 25.98c14.914-2.372 15-25.98 15-25.98" clip-rule="evenodd" opacity=".3"/><path fill="#0BC236" fill-rule="evenodd" d="M24 2s-12.23 20.488 0 30c11.73-9.512 0-30 0-30" clip-rule="evenodd" opacity=".3"/><path fill="#0BC236" d="M11.236 27a1 1 0 0 1 1-1h23.527a1 1 0 0 1 1 1v17a2 2 0 0 1-2 2H13.236a2 2 0 0 1-2-2z"/></svg>