<svg width="180" height="180" viewBox="0 0 180 180" fill="none" xmlns="http://www.w3.org/2000/svg">
<g clip-path="url(#clip0_217_1202)">
<path d="M0 33.75C0 15.1104 15.1104 0 33.75 0H146.25C164.89 0 180 15.1104 180 33.75V146.25C180 164.89 164.89 180 146.25 180H33.75C15.1104 180 0 164.89 0 146.25V33.75Z" fill="white"/>
<path d="M28.6187 53.0678V134.529C25.1484 134.392 22.5 132.474 22.5 129.826V57.7481C22.5 55.0997 25.1484 53.1819 28.6187 53.0449V53.0678Z" fill="#173D6C"/>
<path d="M152.797 59.0049L40.1486 45.1008C34.8975 44.4616 30.5596 46.9273 30.5596 50.6488V136.904C30.5596 140.626 34.9203 143.114 40.1486 142.452L152.797 128.548C155.422 128.229 157.5 125.9 157.5 123.343V64.1647C157.5 61.6077 155.422 59.2789 152.797 58.9593V59.0049Z" fill="url(#paint0_linear_217_1202)"/>
<path d="M115.445 81.9954L104.966 81.5159V117.087L94.9657 117.886V81.0593L82.8196 80.5114V69.6895L115.445 72.3379V81.9954Z" fill="white"/>
<path d="M142.751 114.027L133.139 114.804L121.473 72.8174L130.514 73.548L138.048 103.776L145.126 74.7124L152.683 75.3288L142.751 114.027Z" fill="white"/>
</g>
<defs>
<linearGradient id="paint0_linear_217_1202" x1="38.0938" y1="68.183" x2="148.368" y2="131.836" gradientUnits="userSpaceOnUse">
<stop stop-color="#0B7DC2"/>
<stop offset="0.15" stop-color="#0C76B8"/>
<stop offset="0.41" stop-color="#0F639F"/>
<stop offset="0.73" stop-color="#154476"/>
<stop offset="0.8" stop-color="#173D6C"/>
</linearGradient>
<clipPath id="clip0_217_1202">
<rect width="180" height="180" fill="white"/>
</clipPath>
</defs>
</svg>
