<svg xmlns="http://www.w3.org/2000/svg" width="43" height="31" fill="none"><path fill="#173D6C" d="M1.93 2.546v25.699C.836 28.202 0 27.597 0 26.761V4.022c0-.835.836-1.44 1.93-1.484z"/><path fill="url(#a)" d="M41.106 4.418 5.568.032C3.91-.17 2.543.608 2.543 1.782v27.212c0 1.174 1.375 1.96 3.025 1.75l35.538-4.386c.829-.1 1.484-.836 1.484-1.642V6.046c0-.807-.655-1.541-1.484-1.642z"/><path fill="#fff" d="m29.323 11.671-3.306-.15v11.221l-3.155.252V11.376l-3.832-.173V7.79l10.293.836zM37.937 21.777l-3.032.245-3.681-13.246 2.852.23 2.377 9.537 2.233-9.17 2.384.195z"/><defs><linearGradient id="a" x1="4.92" x2="39.709" y1="7.314" y2="27.395" gradientUnits="userSpaceOnUse"><stop stop-color="#0B7DC2"/><stop offset=".15" stop-color="#0C76B8"/><stop offset=".41" stop-color="#0F639F"/><stop offset=".73" stop-color="#154476"/><stop offset=".8" stop-color="#173D6C"/></linearGradient></defs></svg>