<svg width="110" height="70" viewBox="0 0 110 70" fill="none" xmlns="http://www.w3.org/2000/svg">
<path d="M68 61H42C40.8954 61 40 61.8954 40 63C40 64.1046 40.8954 65 42 65H68C69.1046 65 70 64.1046 70 63C70 61.8954 69.1046 61 68 61Z" fill="#4B5563"/>
<path d="M58 57H52V63H58V57Z" fill="#4B5563"/>
<path d="M101 5H9C6.79086 5 5 6.79086 5 9V56C5 58.2091 6.79086 60 9 60H101C103.209 60 105 58.2091 105 56V9C105 6.79086 103.209 5 101 5Z" fill="#4B5563"/>
<path d="M100 8H10C8.89543 8 8 8.89543 8 10V55C8 56.1046 8.89543 57 10 57H100C101.105 57 102 56.1046 102 55V10C102 8.89543 101.105 8 100 8Z" fill="#6B7280"/>
<path d="M10 10H60L10 50V10Z" fill="white" fill-opacity="0.1"/>
</svg>
