<svg width="110" height="70" viewBox="0 0 110 70" fill="none" xmlns="http://www.w3.org/2000/svg">
<g opacity="0.8">
<path d="M67.4 52H46.6C45.7163 52 45 52.6716 45 53.5C45 54.3284 45.7163 55 46.6 55H67.4C68.2837 55 69 54.3284 69 53.5C69 52.6716 68.2837 52 67.4 52Z" fill="#4B5563"/>
<path d="M60 49H55V53H60V49Z" fill="#4B5563"/>
<path d="M92.88 8H21.12C19.3969 8 18 9.40013 18 11.1273V47.8727C18 49.5999 19.3969 51 21.12 51H92.88C94.6031 51 96 49.5999 96 47.8727V11.1273C96 9.40013 94.6031 8 92.88 8Z" fill="#4B5563"/>
<path d="M92.4255 10H21.5745C20.7049 10 20 10.7127 20 11.5918V47.4082C20 48.2873 20.7049 49 21.5745 49H92.4255C93.2951 49 94 48.2873 94 47.4082V11.5918C94 10.7127 93.2951 10 92.4255 10Z" fill="#6B7280"/>
<path d="M22 12H61L22 43V12Z" fill="white" fill-opacity="0.1"/>
</g>
<path d="M57.4 58H36.6C35.7163 58 35 58.6716 35 59.5C35 60.3284 35.7163 61 36.6 61H57.4C58.2837 61 59 60.3284 59 59.5C59 58.6716 58.2837 58 57.4 58Z" fill="#4B5563"/>
<path d="M50 55H45V59H50V55Z" fill="#4B5563"/>
<path d="M82.88 14H11.12C9.39687 14 8 15.4001 8 17.1273V53.8727C8 55.5999 9.39687 57 11.12 57H82.88C84.6031 57 86 55.5999 86 53.8727V17.1273C86 15.4001 84.6031 14 82.88 14Z" fill="#4B5563"/>
<path d="M82.4255 16H11.5745C10.7049 16 10 16.7127 10 17.5918V53.4082C10 54.2873 10.7049 55 11.5745 55H82.4255C83.2951 55 84 54.2873 84 53.4082V17.5918C84 16.7127 83.2951 16 82.4255 16Z" fill="#6B7280"/>
<path d="M12 18H51L12 49V18Z" fill="white" fill-opacity="0.1"/>
</svg>
