<svg width="110" height="70" viewBox="0 0 110 70" fill="none" xmlns="http://www.w3.org/2000/svg">
<g opacity="0.4">
<path d="M71.4 46H50.6C49.7163 46 49 46.6716 49 47.5C49 48.3284 49.7163 49 50.6 49H71.4C72.2837 49 73 48.3284 73 47.5C73 46.6716 72.2837 46 71.4 46Z" fill="#4B5563"/>
<path d="M64 43H59V47H64V43Z" fill="#4B5563"/>
<path d="M96.88 2H25.12C23.3969 2 22 3.40013 22 5.12727V41.8727C22 43.5999 23.3969 45 25.12 45H96.88C98.6031 45 100 43.5999 100 41.8727V5.12727C100 3.40013 98.6031 2 96.88 2Z" fill="#4B5563"/>
<path d="M96.4255 4H25.5745C24.7049 4 24 4.71269 24 5.59184V41.4082C24 42.2873 24.7049 43 25.5745 43H96.4255C97.2951 43 98 42.2873 98 41.4082V5.59184C98 4.71269 97.2951 4 96.4255 4Z" fill="#6B7280"/>
<path d="M26 6H65L26 37V6Z" fill="white" fill-opacity="0.1"/>
</g>
<g opacity="0.6">
<path d="M67.4 50H46.6C45.7163 50 45 50.6716 45 51.5C45 52.3284 45.7163 53 46.6 53H67.4C68.2837 53 69 52.3284 69 51.5C69 50.6716 68.2837 50 67.4 50Z" fill="#4B5563"/>
<path d="M60 47H55V51H60V47Z" fill="#4B5563"/>
<path d="M92.88 6H21.12C19.3969 6 18 7.40013 18 9.12727V45.8727C18 47.5999 19.3969 49 21.12 49H92.88C94.6031 49 96 47.5999 96 45.8727V9.12727C96 7.40013 94.6031 6 92.88 6Z" fill="#4B5563"/>
<path d="M92.4255 8H21.5745C20.7049 8 20 8.71269 20 9.59184V45.4082C20 46.2873 20.7049 47 21.5745 47H92.4255C93.2951 47 94 46.2873 94 45.4082V9.59184C94 8.71269 93.2951 8 92.4255 8Z" fill="#6B7280"/>
<path d="M22 10H61L22 41V10Z" fill="white" fill-opacity="0.1"/>
</g>
<g opacity="0.8">
<path d="M63.4 54H42.6C41.7163 54 41 54.6716 41 55.5C41 56.3284 41.7163 57 42.6 57H63.4C64.2837 57 65 56.3284 65 55.5C65 54.6716 64.2837 54 63.4 54Z" fill="#4B5563"/>
<path d="M56 51H51V55H56V51Z" fill="#4B5563"/>
<path d="M88.88 10H17.12C15.3969 10 14 11.4001 14 13.1273V49.8727C14 51.5999 15.3969 53 17.12 53H88.88C90.6031 53 92 51.5999 92 49.8727V13.1273C92 11.4001 90.6031 10 88.88 10Z" fill="#4B5563"/>
<path d="M88.4255 12H17.5745C16.7049 12 16 12.7127 16 13.5918V49.4082C16 50.2873 16.7049 51 17.5745 51H88.4255C89.2951 51 90 50.2873 90 49.4082V13.5918C90 12.7127 89.2951 12 88.4255 12Z" fill="#6B7280"/>
<path d="M18 14H57L18 45V14Z" fill="white" fill-opacity="0.1"/>
</g>
<path d="M57.4 58H36.6C35.7163 58 35 58.6716 35 59.5C35 60.3284 35.7163 61 36.6 61H57.4C58.2837 61 59 60.3284 59 59.5C59 58.6716 58.2837 58 57.4 58Z" fill="#4B5563"/>
<path d="M50 55H45V59H50V55Z" fill="#4B5563"/>
<path d="M82.88 14H11.12C9.39687 14 8 15.4001 8 17.1273V53.8727C8 55.5999 9.39687 57 11.12 57H82.88C84.6031 57 86 55.5999 86 53.8727V17.1273C86 15.4001 84.6031 14 82.88 14Z" fill="#4B5563"/>
<path d="M82.4255 16H11.5745C10.7049 16 10 16.7127 10 17.5918V53.4082C10 54.2873 10.7049 55 11.5745 55H82.4255C83.2951 55 84 54.2873 84 53.4082V17.5918C84 16.7127 83.2951 16 82.4255 16Z" fill="#6B7280"/>
<path d="M12 18H51L12 49V18Z" fill="white" fill-opacity="0.1"/>
</svg>
