<svg width="110" height="70" viewBox="0 0 110 70" fill="none" xmlns="http://www.w3.org/2000/svg">
<g opacity="0.6">
<path d="M71.4 48H50.6C49.7163 48 49 48.6716 49 49.5C49 50.3284 49.7163 51 50.6 51H71.4C72.2837 51 73 50.3284 73 49.5C73 48.6716 72.2837 48 71.4 48Z" fill="#4B5563"/>
<path d="M64 45H59V49H64V45Z" fill="#4B5563"/>
<path d="M96.88 4H25.12C23.3969 4 22 5.40013 22 7.12727V43.8727C22 45.5999 23.3969 47 25.12 47H96.88C98.6031 47 100 45.5999 100 43.8727V7.12727C100 5.40013 98.6031 4 96.88 4Z" fill="#4B5563"/>
<path d="M96.4255 6H25.5745C24.7049 6 24 6.71269 24 7.59184V43.4082C24 44.2873 24.7049 45 25.5745 45H96.4255C97.2951 45 98 44.2873 98 43.4082V7.59184C98 6.71269 97.2951 6 96.4255 6Z" fill="#6B7280"/>
<path d="M26 8H65L26 39V8Z" fill="white" fill-opacity="0.1"/>
</g>
<g opacity="0.8">
<path d="M65.4 52H44.6C43.7163 52 43 52.6716 43 53.5C43 54.3284 43.7163 55 44.6 55H65.4C66.2837 55 67 54.3284 67 53.5C67 52.6716 66.2837 52 65.4 52Z" fill="#4B5563"/>
<path d="M58 49H53V53H58V49Z" fill="#4B5563"/>
<path d="M90.88 8H19.12C17.3969 8 16 9.40013 16 11.1273V47.8727C16 49.5999 17.3969 51 19.12 51H90.88C92.6031 51 94 49.5999 94 47.8727V11.1273C94 9.40013 92.6031 8 90.88 8Z" fill="#4B5563"/>
<path d="M90.4255 10H19.5745C18.7049 10 18 10.7127 18 11.5918V47.4082C18 48.2873 18.7049 49 19.5745 49H90.4255C91.2951 49 92 48.2873 92 47.4082V11.5918C92 10.7127 91.2951 10 90.4255 10Z" fill="#6B7280"/>
<path d="M20 12H59L20 43V12Z" fill="white" fill-opacity="0.1"/>
</g>
<path d="M57.4 58H36.6C35.7163 58 35 58.6716 35 59.5C35 60.3284 35.7163 61 36.6 61H57.4C58.2837 61 59 60.3284 59 59.5C59 58.6716 58.2837 58 57.4 58Z" fill="#4B5563"/>
<path d="M50 55H45V59H50V55Z" fill="#4B5563"/>
<path d="M82.88 14H11.12C9.39687 14 8 15.4001 8 17.1273V53.8727C8 55.5999 9.39687 57 11.12 57H82.88C84.6031 57 86 55.5999 86 53.8727V17.1273C86 15.4001 84.6031 14 82.88 14Z" fill="#4B5563"/>
<path d="M82.4255 16H11.5745C10.7049 16 10 16.7127 10 17.5918V53.4082C10 54.2873 10.7049 55 11.5745 55H82.4255C83.2951 55 84 54.2873 84 53.4082V17.5918C84 16.7127 83.2951 16 82.4255 16Z" fill="#6B7280"/>
<path d="M12 18H51L12 49V18Z" fill="white" fill-opacity="0.1"/>
</svg>
