<svg width="165" height="60" viewBox="0 0 165 60" fill="none" xmlns="http://www.w3.org/2000/svg">
<path d="M70.907 16.1104L71.381 15.8846C71.8302 15.8236 72.1355 16.3877 72.2969 17.5768L73.5328 22.0714L73.6228 22.1399L75.7889 20.9981C76.0928 20.9569 76.2893 21.1657 76.3785 21.6245C76.4251 21.968 75.6427 22.4981 74.0311 23.2147L73.9572 23.2651L73.968 23.3444C74.0056 23.6219 74.638 25.0094 75.8652 27.507L75.8705 27.5467C75.9046 27.7977 75.7285 28.0369 75.3423 28.2643C74.9591 28.3163 74.6462 27.8945 74.4035 26.999C74.01 26.3797 73.4921 25.3399 72.8498 23.8797L72.7705 23.8905C71.0882 24.4821 70.264 24.9035 70.2981 25.1545C69.6266 27.3448 69.0465 28.4731 68.5576 28.5394C68.2802 28.5771 68.0908 28.4212 67.9895 28.0716C67.9465 27.7545 68.2123 27.086 68.787 26.0661L69.0099 25.3294L68.5145 25.3967L68.1487 25.5271C67.6437 25.4745 67.3652 25.2567 67.3132 24.8735C67.4486 24.3842 67.7079 24.1135 68.091 24.0615L68.6134 24.1924C69.3532 24.092 69.6864 23.7709 69.6129 23.2292C70.0715 21.5523 70.5028 19.1794 70.907 16.1104ZM71.575 19.6931L70.8847 23.3795C71.9394 23.021 72.4533 22.7427 72.4263 22.5445C71.9645 20.6292 71.6807 19.6788 71.575 19.6931ZM76.6114 17.7379C77.2984 17.6446 77.924 18.9322 78.488 21.6005L78.6904 22.1987C79.1295 20.8743 79.5407 20.1861 79.9238 20.1341C79.9167 20.0812 80.05 20.0227 80.3239 19.9586L80.4031 19.9479C81.2751 19.8295 81.9224 20.4346 82.345 21.7632L82.3531 21.8226C82.5109 22.9853 82.1035 24.3458 81.131 25.9041C80.7139 26.499 80.2147 26.8358 79.6333 26.9148C78.953 26.8591 78.5778 26.5736 78.5079 26.0584L76.5511 19.0782L76.1543 18.3852C76.122 18.1474 76.2744 17.9316 76.6114 17.7379ZM79.7648 25.5043L79.8242 25.4962C80.4736 25.1255 80.9465 24.0992 81.243 22.4174L81.1407 21.6643C80.9662 21.2708 80.7865 21.0867 80.6015 21.1118L80.443 21.1333C79.9083 21.5557 79.6822 23.0127 79.7648 25.5043ZM86.1387 18.4225C87.1164 18.2898 87.9549 18.916 88.6543 20.3012L88.79 20.7066C88.9819 22.1203 88.5177 23.6567 87.3974 25.3158C86.9353 25.8764 86.4334 26.1935 85.8917 26.267C85.0989 26.3746 84.4755 25.995 84.0215 25.1282C83.8452 24.7216 83.7355 24.3597 83.6925 24.0426L83.6602 23.8048C83.3768 21.7173 83.9213 20.0287 85.2936 18.739C85.5399 18.571 85.8216 18.4655 86.1387 18.4225ZM84.8564 23.8443C84.9783 24.7427 85.2705 25.1605 85.7329 25.0977C86.6974 24.9668 87.3291 23.623 87.6278 21.0662L87.5767 20.6896C87.2409 19.901 86.7691 19.5479 86.1614 19.6304C85.9235 19.6627 85.8271 19.844 85.8719 20.1743C85.9024 20.3989 85.6624 20.6131 85.1518 20.817C84.7952 21.6593 84.6967 22.6684 84.8564 23.8443ZM89.7207 18.7435C90.0245 18.7023 90.4535 19.3841 91.0075 20.789C91.6674 21.8835 92.0349 22.4593 92.1099 22.5164C92.176 22.5075 92.3307 21.8137 92.5741 20.4351C92.8176 19.0565 93.1309 18.3412 93.514 18.2891C93.8887 18.3728 94.0957 18.56 94.1352 18.8507C93.4224 21.8269 93.1279 23.7709 93.2517 24.6825L92.9262 25.1102L92.5497 25.1613C92.0274 24.8824 90.9749 23.1751 89.392 20.0395L89.1141 19.3305C89.1618 18.9876 89.3639 18.792 89.7207 18.7435ZM96.6056 17.3649C97.1359 17.3063 98.1532 18.1101 99.6577 19.7762L99.7431 20.1077C99.7933 20.4777 98.9268 20.8846 97.1437 21.3285L97.0923 21.396L97.1031 21.4753C97.5419 22.6267 97.9133 23.1818 98.2172 23.1406L98.455 23.1083C98.8778 23.0509 99.4567 22.5081 100.192 21.4799L100.311 21.4637C100.575 21.4278 100.806 21.5916 101.003 21.955C101.046 22.2721 100.566 22.8958 99.5616 23.8259C99.2943 24.0372 98.9612 24.2102 98.5624 24.3451C97.4922 24.4904 96.6094 23.5876 95.914 21.6367C95.2936 21.6267 94.9557 21.417 94.9001 21.0074C94.8606 20.7167 95.0592 20.4947 95.4959 20.3412L95.5066 20.4205L95.6941 20.3143L95.6268 19.8188C95.4205 18.2994 95.7468 17.4814 96.6056 17.3649ZM96.9182 18.7756L96.7399 18.7998L96.7601 19.5439L96.8435 20.1582L96.9228 20.1475C97.6591 20.0206 98.0183 19.8911 98.0003 19.759C97.5869 19.2904 97.2262 18.9626 96.9182 18.7756ZM113.811 9.64024C114.484 9.54877 114.914 9.73939 115.099 10.2121C115.126 10.4103 114.963 10.6477 114.611 10.9243L113.932 10.8347L113.853 10.8455C113.113 10.9459 112.41 12.1111 111.744 14.3409C111.682 14.8742 111.683 15.3786 111.748 15.8542L111.858 16.6668L111.937 16.656C113.497 16.054 114.502 15.7226 114.951 15.6616C115.547 15.6884 115.869 15.8801 115.917 16.2368C115.848 16.6229 115.682 16.8339 115.418 16.8698L115.053 16.8587C113.721 17.1606 112.758 17.4999 112.164 17.8767L112.182 18.0154L112.856 21.1937C113.062 22.7131 112.862 23.514 112.254 23.5965C112.042 23.6252 111.828 23.4861 111.612 23.1791C111.75 22.6087 111.763 21.9139 111.652 21.0948C111.539 20.2624 111.331 19.3285 111.029 18.293L110.094 18.5411C109.225 18.5784 108.758 18.3658 108.696 17.9034C108.777 17.5155 108.964 17.3019 109.254 17.2624L109.769 17.3339L110.125 17.2854L110.749 17.1201L110.598 16.0103C110.32 13.9624 110.981 12.0427 112.582 10.2511C112.952 9.90485 113.361 9.70123 113.811 9.64024ZM116.416 11.4058C116.933 11.4433 117.214 11.6338 117.261 11.9774C117.179 12.3652 116.993 12.5789 116.702 12.6184C116.201 12.5922 115.923 12.381 115.869 11.9846C115.956 11.6364 116.139 11.4434 116.416 11.4058ZM117.546 14.0781C117.757 14.0494 117.962 14.2168 118.159 14.5802L118.172 16.0115L118.298 16.9429C118.445 18.0263 118.823 19.4215 119.432 21.1285C119.333 21.3975 119.126 21.5535 118.809 21.5965C118.267 21.6701 117.695 20.1331 117.093 16.9855L116.999 16.2918C116.809 14.8913 116.991 14.1534 117.546 14.0781ZM122.059 13.2031C122.891 13.0901 123.465 13.6042 123.782 14.7453L123.806 14.9237C123.98 16.2053 123.479 17.4708 122.303 18.7204C123.171 19.3694 124.564 19.5639 126.479 19.3039C126.783 19.3569 126.956 19.542 126.999 19.859C127.047 20.2158 126.84 20.4255 126.378 20.4883C125.083 20.6641 123.677 20.5185 122.161 20.0516L122.239 20.6263C122.423 21.9872 122.225 22.7071 121.644 22.786C121.234 22.8416 120.923 22.0833 120.709 20.511L120.499 18.9652L120.365 18.4184L120.417 17.7654L120.02 15.8816L120.01 15.8024C119.961 15.4456 120.113 15.1761 120.465 14.9938C120.84 13.8933 121.371 13.2964 122.059 13.2031ZM121.657 17.6778C122.04 17.6258 122.376 16.8805 122.665 15.4418L122.549 14.5897L122.277 14.3643L122.098 14.3885C121.571 14.8638 121.424 15.9602 121.657 17.6778ZM128.559 13.0271C129.089 12.9686 130.106 13.7724 131.611 15.4385L131.696 15.77C131.746 16.1399 130.88 16.5469 129.097 16.9908L129.045 17.0583L129.056 17.1376C129.495 18.289 129.866 18.8441 130.17 18.8028L130.408 18.7705C130.831 18.7131 131.41 18.1703 132.145 17.1421L132.264 17.126C132.528 17.0901 132.759 17.2539 132.956 17.6173C132.999 17.9344 132.519 18.558 131.515 19.4882C131.247 19.6994 130.914 19.8725 130.515 20.0073C129.445 20.1526 128.562 19.2498 127.867 17.299C127.247 17.289 126.909 17.0792 126.853 16.6697C126.814 16.379 127.012 16.1569 127.449 16.0034L127.46 16.0827L127.647 15.9765L127.58 15.4811C127.374 13.9617 127.7 13.1437 128.559 13.0271ZM128.871 14.4379L128.693 14.4621L128.713 15.2061L128.797 15.8205L128.876 15.8097C129.612 15.6829 129.971 15.5534 129.953 15.4213C129.54 14.9526 129.179 14.6248 128.871 14.4379ZM135.631 13.3184C137.031 13.1283 137.976 13.8948 138.466 15.618C138.677 17.177 138.102 18.3921 136.74 19.2632C136.593 19.364 136.38 19.4332 136.103 19.4709L135.964 19.4897L135.522 19.5093L135.528 19.5489L136.325 24.8296C136.289 25.2517 136.105 25.4852 135.775 25.5301C135.389 25.4614 135.178 25.2949 135.142 25.0307L133.5 14.2738C133.453 13.9302 133.634 13.7241 134.042 13.6553L134.482 13.7771C134.825 13.5287 135.208 13.3758 135.631 13.3184ZM134.925 15.5537L134.949 16.1761L135.294 18.2688L135.867 18.3322C136.752 18.212 137.239 17.4866 137.328 16.1559L137.287 15.8587C137.053 14.8274 136.612 14.3558 135.965 14.4437L135.668 14.484C135.086 14.563 134.839 14.9195 134.925 15.5537ZM139.484 7.66872C139.872 7.75062 140.085 7.93029 140.122 8.20775L141.346 15.7316L141.677 18.1692C141.738 18.6184 141.576 18.8691 141.193 18.9211L140.936 18.956C140.676 18.8298 140.532 18.661 140.504 18.4496L140.192 16.1506L138.948 8.32685C138.903 7.99654 139.082 7.77717 139.484 7.66872ZM145.814 10.1397C146.395 10.0608 146.717 10.2525 146.78 10.715L146.653 11.1157L147.026 14.7586C147.249 16.3969 147.717 17.3694 148.431 17.6761L148.511 17.968C148.524 18.3565 148.371 18.5723 148.054 18.6153L147.935 18.6315C146.853 18.0922 146.218 17.1289 146.029 15.7416L145.891 15.7605C145.563 17.312 145.023 18.1388 144.27 18.2411C143.543 18.1379 143.122 17.6636 143.007 16.818C142.754 14.9551 143.248 12.9975 144.49 10.9451C144.937 10.4673 145.378 10.1989 145.814 10.1397ZM144.148 15.8558L144.144 16.4215L144.195 16.798L144.393 16.7711C145.049 14.1659 145.34 12.5925 145.266 12.0508L145.187 12.0615C144.537 13.0243 144.191 14.2891 144.148 15.8558ZM150.043 10.5143L150.839 10.285C151.169 10.2402 151.382 10.4199 151.477 10.8241C151.526 11.1808 151.128 11.4703 150.283 11.6926C149.799 12.1889 149.602 12.7674 149.691 13.428L149.78 14.082C150.242 15.4995 150.79 16.1651 151.424 16.079L151.622 16.0521C151.992 16.0019 152.499 15.5765 153.144 14.7758L153.263 14.7596C153.527 14.7238 153.764 14.88 153.972 15.2285C153.865 15.8217 153.34 16.4177 152.399 17.0164C152.224 17.1208 151.999 17.1918 151.721 17.2295C150.36 17.4142 149.33 16.4642 148.63 14.3795L148.57 13.9435C148.361 12.3976 148.851 11.2546 150.043 10.5143ZM156.002 9.30155C156.532 9.24302 157.55 10.0468 159.054 11.7129L159.14 12.0444C159.19 12.4144 158.323 12.8213 156.54 13.2652L156.489 13.3327L156.5 13.412C156.939 14.5634 157.31 15.1185 157.614 15.0773L157.852 15.045C158.274 14.9876 158.853 14.4448 159.588 13.4165L159.707 13.4004C159.971 13.3645 160.202 13.5283 160.4 13.8917C160.443 14.2088 159.962 14.8325 158.958 15.7626C158.691 15.9738 158.358 16.1469 157.959 16.2818C156.889 16.4271 156.006 15.5243 155.311 13.5734C154.69 13.5634 154.352 13.3537 154.297 12.9441C154.257 12.6534 154.456 12.4313 154.892 12.2779L154.903 12.3572L155.091 12.251L155.023 11.7555C154.817 10.2361 155.143 9.41813 156.002 9.30155ZM156.315 10.7123L156.136 10.7365L156.157 11.4806L156.24 12.0949L156.319 12.0842C157.056 11.9573 157.415 11.8278 157.397 11.6957C156.983 11.227 156.623 10.8993 156.315 10.7123ZM85.136 35.1696C85.4531 35.1265 85.6803 35.2639 85.8177 35.5816L85.8575 36.767L85.9086 37.1436C86.6102 39.8337 87.1037 41.933 87.3893 43.4416C87.7265 44.8356 87.9744 45.5218 88.133 45.5003C88.1706 45.7778 87.9636 45.9875 87.512 46.1296C86.8514 46.2193 86.3399 44.9297 85.9776 42.2608L84.7232 37.1834L84.699 37.005C84.5411 35.8424 84.6868 35.2306 85.136 35.1696ZM90.8678 38.7713C92.0034 38.7113 92.6393 39.1834 92.7756 40.1875L92.8503 40.4398L93.2303 43.5368C93.2788 43.8935 93.549 44.3479 94.0411 44.9001L94.0465 44.9397C93.9928 45.3372 93.8272 45.5548 93.5498 45.5925C92.684 45.3602 92.1758 44.6891 92.0251 43.5793L91.9901 43.3217L91.9253 43.2901L91.974 43.2027L91.9686 43.1631L91.6568 40.4201C91.6048 40.037 91.4136 39.8678 91.0833 39.9127L90.8455 39.9449C90.2207 40.2989 90.0868 41.7904 90.4438 44.4197C90.5675 45.3313 90.3982 45.8185 89.9358 45.8813C89.579 45.9297 89.3636 45.7302 89.2894 45.2828L89.0203 43.301C88.6724 40.7378 88.723 39.4257 89.1722 39.3648L89.3623 39.2784L89.7866 39.2814C90.111 38.9951 90.4714 38.8251 90.8678 38.7713ZM95.804 38.0608L96.6004 37.8316C96.9307 37.7867 97.1434 37.9664 97.2387 38.3706C97.2871 38.7273 96.8891 39.0169 96.0447 39.2391C95.5604 39.7355 95.363 40.3139 95.4527 40.9745L95.5415 41.6285C96.003 43.046 96.5509 43.7117 97.1851 43.6256L97.3833 43.5987C97.7532 43.5485 98.2606 43.123 98.9054 42.3223L99.0243 42.3062C99.2886 42.2703 99.5251 42.4266 99.7338 42.775C99.626 43.3682 99.1014 43.9642 98.16 44.563C97.9858 44.6673 97.76 44.7384 97.4826 44.776C96.1217 44.9608 95.0912 44.0108 94.3911 41.926L94.3319 41.49C94.122 39.9442 94.6127 38.8011 95.804 38.0608ZM100.593 33.1318C100.981 33.2137 101.194 33.3934 101.231 33.6708L102.455 41.1946L102.785 43.6323C102.846 44.0815 102.685 44.3321 102.302 44.3841L102.045 44.4191C101.785 44.2928 101.641 44.124 101.613 43.9126L101.3 41.6137L100.057 33.7899C100.012 33.4596 100.191 33.2402 100.593 33.1318ZM104.238 37.6828L104.568 37.4362C104.885 37.3931 105.142 37.5533 105.34 37.9167C105.261 38.9231 105.292 39.9416 105.432 40.9722C105.501 41.4874 105.73 42.0283 106.116 42.5948L106.235 42.5787C106.618 42.5267 106.869 40.952 106.986 37.8547C107.15 37.671 107.317 37.5675 107.489 37.5442C107.899 37.4886 108.202 38.1875 108.399 39.6408C108.788 41.2162 109.088 41.9895 109.3 41.9608L109.581 41.8015C109.984 41.8949 110.203 42.0736 110.239 42.3379C110.069 42.8722 109.773 43.1681 109.35 43.2255C108.875 43.2901 108.354 42.8763 107.789 41.9842C107.411 43.1658 106.952 43.7933 106.41 43.8669C105.604 43.9763 104.928 43.2135 104.384 41.5786L104.238 40.9525L104.211 40.7543C104.068 39.6974 104.077 38.6735 104.238 37.6828ZM113.919 31.3631C114.144 31.3326 114.377 31.5162 114.62 31.9139L114.495 37.5417L114.705 39.0875C114.924 40.6994 115.285 41.4713 115.787 41.4031C116.138 41.5168 116.332 41.7058 116.368 41.97C116.409 42.2739 116.169 42.4882 115.648 42.6127C115.067 42.6917 114.538 42.2185 114.063 41.1931L113.865 41.22C113.521 42.3566 112.999 42.9724 112.299 43.0674C111.48 43.1786 110.9 42.6249 110.56 41.4063C110.364 39.9662 111.121 38.3092 112.831 36.4355C113.215 36.3835 113.334 35.8224 113.188 34.7522C113.187 32.5592 113.43 31.4294 113.919 31.3631ZM111.707 41.089L111.78 41.6241L112.14 41.8982L112.259 41.882C112.682 41.8246 113.004 40.4824 113.226 37.8553L113.107 37.8715C112.068 39.237 111.601 40.3095 111.707 41.089ZM117.905 34.6569C118.435 34.5984 119.452 35.4021 120.957 37.0682L121.042 37.3998C121.092 37.7697 120.226 38.1766 118.443 38.6205L118.391 38.6881L118.402 38.7673C118.841 39.9188 119.212 40.4738 119.516 40.4326L119.754 40.4003C120.177 40.3429 120.756 39.8001 121.491 38.7719L121.61 38.7557C121.874 38.7199 122.105 38.8836 122.302 39.2471C122.345 39.5642 121.865 40.1878 120.861 41.118C120.593 41.3292 120.26 41.5022 119.861 41.6371C118.791 41.7824 117.908 40.8796 117.213 38.9288C116.593 38.9188 116.255 38.709 116.199 38.2994C116.16 38.0088 116.358 37.7867 116.795 37.6332L116.806 37.7125L116.993 37.6063L116.926 37.1109C116.72 35.5915 117.046 34.7735 117.905 34.6569ZM118.217 36.0677L118.039 36.0919L118.059 36.8359L118.143 37.4503L118.222 37.4395C118.958 37.3126 119.317 37.1831 119.299 37.051C118.886 36.5824 118.525 36.2546 118.217 36.0677ZM126.518 29.6527C126.743 29.6222 126.976 29.8058 127.219 30.2035L127.095 35.8313L127.305 37.3771C127.523 38.989 127.884 39.7609 128.386 39.6927C128.738 39.8064 128.932 39.9954 128.967 40.2596C129.009 40.5635 128.769 40.7778 128.247 40.9023C127.666 40.9813 127.138 40.5081 126.662 39.4827L126.464 39.5096C126.12 40.6462 125.598 41.262 124.898 41.357C124.079 41.4682 123.499 40.9145 123.159 39.6959C122.963 38.2558 123.721 36.5988 125.431 34.7251C125.814 34.6731 125.933 34.112 125.788 33.0418C125.786 30.8488 126.029 29.7191 126.518 29.6527ZM124.307 39.3786L124.379 39.9137L124.739 40.1878L124.858 40.1716C125.281 40.1142 125.603 38.772 125.825 36.1449L125.706 36.1611C124.667 37.5266 124.201 38.5991 124.307 39.3786ZM129.498 41.7418L149.316 39.0514L146.626 19.2331L126.807 21.9235L129.498 41.7418Z" fill="#0E0E13"/>
<path d="M3.12329 25.2118C3.52876 24.7791 4.11825 24.2935 4.58917 23.9578C4.73672 23.8523 4.68909 23.9406 4.7922 23.87C4.99354 23.7328 5.16365 23.5806 5.36873 23.4544C5.43703 23.4127 5.39364 23.5218 5.46421 23.4772C5.85008 23.2335 6.1987 22.9789 6.59811 22.7448C7.08528 22.4599 7.58203 22.1942 8.09283 21.9545C9.86027 21.2667 11.4942 21.314 13.1967 21.201C13.9394 21.1683 14.8403 21.188 15.6031 21.1345C15.6036 21.1345 15.604 21.1345 15.6044 21.1344C15.6969 21.1281 15.6399 21.0749 15.6573 21.0697C15.9316 20.9922 15.8412 21.1064 16.0214 21.1193C16.7324 21.1717 17.5179 21.2452 18.1951 21.3571C18.4834 21.4058 18.219 21.2387 18.4945 21.3608C18.5136 21.3693 18.4282 21.4104 18.5053 21.4341C18.679 21.4861 19.0145 21.5639 19.1469 21.609C19.4035 21.6955 19.4455 21.7089 19.6867 21.7927C20.0157 21.909 20.3876 22.0912 20.7302 22.233C20.8035 22.2632 20.733 22.1646 20.8525 22.2084C20.9726 22.2516 21.2719 22.4027 21.3655 22.4667C21.4596 22.5301 21.3953 22.5507 21.4081 22.5693C21.512 22.7239 21.9087 22.7914 21.9537 22.8128C22.2177 22.9358 22.4611 23.067 22.6941 23.2008C23.2444 23.5278 23.5992 23.9435 24.0125 24.334C24.4702 24.7777 24.9669 25.2381 25.3962 25.656C25.4132 25.6725 25.4301 25.6891 25.447 25.7057C25.9494 26.2021 26.3254 26.6692 26.7734 27.182C26.8219 27.2379 26.8193 27.1259 26.8787 27.1944C27.5108 27.9251 28.0966 28.6824 28.6329 29.4765C28.6866 29.5562 28.5628 29.4946 28.6133 29.5763C28.7006 29.7169 28.7988 29.8828 28.9036 30.0518C29.1727 30.4841 29.4784 30.9386 29.7806 31.036C29.9975 31.3702 30.2564 31.7793 30.4039 32.1072C30.4993 32.319 30.3214 32.1681 30.4982 32.3894C30.5377 32.4392 30.5432 32.3378 30.5988 32.4151C30.8334 32.7415 31.0489 33.1237 31.2808 33.4469C31.3283 33.5129 31.3622 33.4664 31.3822 33.481C31.5486 33.6058 31.6024 33.947 31.6297 34.012C31.744 34.2805 31.8603 34.5001 31.98 34.7128C32.0807 34.892 32.1837 35.0663 32.2907 35.2659C32.3449 35.3675 32.3432 35.2137 32.3976 35.3105C32.6798 35.8148 32.9364 36.3489 33.1587 36.8613C33.2072 36.9742 33.1023 36.9005 33.1228 36.956C33.2147 37.2017 33.344 37.2034 33.4345 37.4377C33.4536 37.4867 33.3939 37.4838 33.3931 37.4949C33.3809 37.6696 33.5532 37.7283 33.5738 37.7626C33.8025 38.1369 33.8471 38.4488 34.022 38.8071C34.0421 38.8482 34.0642 38.8904 34.0889 38.934C34.1173 38.9837 34.1164 38.8386 34.1928 38.9807C34.6962 39.9149 35.203 40.9209 35.6469 41.8746C35.7161 42.023 35.6179 41.9428 35.6173 41.9548C35.6117 42.1482 35.775 42.184 35.8042 42.229C36.0315 42.5848 36.1215 42.9825 36.3898 43.1634C37.1703 44.7404 38.0708 46.2459 38.8046 47.8282C38.8146 47.8495 38.8244 47.8707 38.8342 47.8918C38.8439 47.9124 38.7692 47.9077 38.7888 47.9485C39.0226 48.4352 39.0579 48.2982 39.338 48.5446C39.4094 48.6084 39.4223 48.9149 39.426 48.9414C39.437 49.0363 39.3104 49.0062 39.3189 49.0352C39.3933 49.2757 39.6375 49.083 39.8074 49.3616C39.8122 49.3704 39.7416 49.3641 39.7508 49.3901C39.7811 49.4735 39.8444 49.5331 39.8718 49.6142C39.9354 49.8016 39.8437 49.939 40.0769 50.1392C40.1062 50.1629 40.2231 50.0231 40.3761 50.2702C40.4362 50.3697 40.7286 50.7917 40.8045 50.9151C40.8787 51.0386 40.7755 50.9913 40.7795 51.0011C40.9464 51.3601 40.8359 51.2593 40.8629 51.4824C40.8921 51.7059 41.0708 51.5054 41.1415 51.5506C41.213 51.5971 41.3378 51.8625 41.3635 51.9318C41.3894 52.0014 41.3073 51.9526 41.3357 52.0101C41.5225 52.3902 41.55 52.0781 41.6662 52.1646C41.6978 52.1884 41.7259 52.2143 41.7506 52.2413C41.9292 52.4326 41.9513 52.703 42.107 52.9137C42.1549 52.9781 42.1463 52.8995 42.1954 52.9507C42.3901 53.1533 42.4572 53.3206 42.7127 53.5221C42.7549 53.5556 43.015 53.6688 43.0644 53.8508C43.0713 53.8768 42.9896 53.8593 43.0628 53.9558C43.1721 54.1002 43.3821 54.3458 43.5247 54.4778C43.6302 54.5755 43.5786 54.4003 43.6815 54.5498C43.7274 54.6165 43.5929 54.5386 43.6814 54.6608C43.7697 54.7825 44.0279 55.063 44.1268 55.1696C44.2256 55.2761 44.2172 55.1765 44.2281 55.1824C44.2337 55.1856 44.2404 55.1898 44.2479 55.1951C44.3292 55.2526 44.5012 55.4007 44.5187 55.4186C45.3637 56.2953 46.1914 57.0995 47.2964 57.5611C47.3828 57.5972 47.352 57.5131 47.3655 57.518C47.6673 57.6201 47.3681 57.6769 47.5552 57.8169C47.5746 57.6841 47.6873 57.7574 47.9043 57.8242C48.0098 57.8566 47.9713 57.7882 47.9826 57.787C48.1605 57.7719 48.2338 57.9037 48.2539 57.9327C48.33 58.0399 48.4713 57.9992 48.5232 58.0728C48.574 58.1457 48.3902 58.1513 48.5935 58.2313C48.6685 58.2118 48.5613 58.0364 48.7258 58.0827C48.7945 58.1027 48.8684 58.1283 48.946 58.1602C49.4946 58.3811 50.475 58.5962 50.905 58.7236C50.9074 58.7243 50.9099 58.7249 50.9123 58.7255C51.3885 58.8442 51.5499 58.8561 51.8334 58.9173C52.3505 59.0195 52.1714 58.9032 52.4989 58.8989C52.8275 58.8908 52.6487 59.0953 52.6911 59.1476C52.7333 59.1994 52.7885 59.1552 52.8438 59.1862C52.8993 59.2173 52.7713 59.239 52.9066 59.2603C53.042 59.2823 53.4202 59.2229 53.4707 59.1753C53.5786 59.0755 53.4183 58.9564 53.7729 59.0139C53.7933 59.0173 53.7238 59.0723 53.8021 59.082C54.4257 59.1571 55.0782 59.1707 55.7057 59.2094C55.7921 59.2148 55.715 59.2799 55.7653 59.2837C56.2894 59.3225 56.1017 59.2138 56.3864 59.089C56.3242 59.2514 56.4842 59.3493 56.8824 59.3421C56.9366 59.3411 56.9763 59.3366 57.0071 59.3298C57.1134 59.3061 57.1143 59.2552 57.2311 59.2102C57.2761 59.1932 57.4484 59.2281 57.4757 59.1915C57.5644 59.0719 57.397 58.9739 57.7974 58.9693C57.8151 58.969 57.7682 59.036 57.8291 59.0307C58.223 58.9904 58.2481 58.8693 58.6541 58.7545C58.972 58.6646 59.5587 58.5462 59.921 58.4171C59.9776 58.591 60.3051 58.4187 60.3923 58.2455C60.6248 58.1549 60.8691 58.0403 61.0965 57.9563C61.1748 57.9273 61.1468 57.9978 61.1587 57.9987C61.3426 58.0131 61.3905 57.8561 61.4376 57.8289C61.5429 57.7691 61.6465 57.7161 61.7489 57.6666C62.1299 57.4813 62.4822 57.3016 62.7802 56.9735C62.7935 56.9584 62.7383 56.8421 62.909 56.8194C62.9207 56.8178 62.8183 56.9799 63.0194 56.8152C63.2197 56.652 63.6247 56.3572 63.8311 56.0496C63.8813 55.9763 63.9567 55.7438 64.1348 55.664C64.1588 55.6534 64.1686 55.6969 64.2065 55.6847C64.3284 55.6441 64.2728 55.514 64.4407 55.4861C64.6085 55.4583 64.8501 55.3018 65.0294 54.9684C65.0354 54.9577 65.0127 54.8266 65.0884 54.7374C65.2082 54.5961 65.391 54.4056 65.513 54.2546C65.5711 54.1826 65.4849 54.1889 65.4942 54.1757C65.5164 54.1449 65.5386 54.1148 65.5607 54.0852C65.8987 53.6302 66.1981 53.3219 66.5781 52.8214C66.652 52.7248 66.7798 52.3862 66.965 52.225C67.168 52.0459 67.285 52.4431 67.5444 51.8877C67.6483 51.6617 67.4673 51.203 67.8539 50.9246C68.1025 50.4109 68.3711 49.9372 68.6324 49.4596C68.7625 49.2302 68.8905 48.9983 69.0121 48.7525C69.0295 48.7174 68.9975 48.56 69.0473 48.4832C69.1191 48.3729 69.2024 48.3376 69.2563 48.2605C69.4843 47.9375 69.6579 47.6139 69.8963 47.3141C69.9875 47.2001 69.9975 47.2727 70.1069 47.1397C70.2171 47.0073 70.2368 46.8734 70.4157 46.717C70.551 46.5995 70.7741 46.5627 70.9435 46.4011C70.8456 46.2999 70.957 46.1835 71.1214 45.9455C71.1221 45.9445 71.1228 45.9434 71.1234 45.9425C71.1494 45.9002 71.0774 45.9106 71.09 45.8878C71.1419 45.7921 71.2371 45.7457 71.283 45.652C71.2942 45.6293 71.259 45.5969 71.266 45.5765C71.3249 45.4029 71.5882 45.2613 71.6336 45.2364C71.8073 45.1419 71.815 45.0355 71.9269 44.9447C72.0386 44.8536 71.9309 45.039 72.0493 44.9223C72.2949 44.6801 72.5634 44.3293 72.7754 44.0524C72.8598 43.9416 72.7515 43.979 72.7624 43.9622C72.8636 43.8109 72.9912 43.6769 73.0677 43.5468C73.0979 43.464 73.11 43.3868 73.0905 43.315C73.4698 43.2608 73.1358 43.1456 73.3308 42.788C73.3458 42.7593 73.5077 42.7674 73.4885 42.8954C73.4689 43.0236 73.3552 43.1863 73.3187 43.3607C73.3121 43.3943 73.3346 43.5836 73.3375 43.6731C73.3326 43.6832 73.3162 43.7117 73.3096 43.7207C73.3069 43.7408 73.3044 43.7555 73.3021 43.7614C73.209 44.0076 72.9998 43.8972 72.9819 43.9004C72.7821 43.939 72.7341 44.261 72.6957 44.3277C72.5229 44.632 72.3125 44.8406 72.1556 45.0863C72.0525 45.2467 72.1571 45.3588 72.0571 45.4701C71.7652 45.7933 71.5186 45.8244 71.3459 46.1418C71.321 46.1873 71.2972 46.2388 71.2751 46.2976C71.2374 46.3976 71.4256 46.4379 71.0911 46.6112C71.0697 46.6223 70.806 46.7353 70.765 46.8981C70.7598 46.9185 70.7967 46.9502 70.7837 46.9713C70.6961 47.1127 70.5957 47.1714 70.4973 47.3213C70.3992 47.471 70.29 47.656 70.1561 47.8098C70.0761 47.9012 69.91 47.9788 69.8584 48.0141C69.7095 48.1153 69.6964 48.323 69.5751 48.3673C69.4526 48.4132 69.4668 48.1743 69.273 48.3818C69.3736 48.4585 69.47 48.548 69.5682 48.6299C69.3543 48.9606 69.1404 49.2877 68.9384 49.6294C68.8403 49.7958 68.7425 49.9844 68.6475 50.1739C68.6128 50.2436 68.7088 50.2047 68.674 50.2784C68.524 50.5947 68.3375 50.8453 68.1762 51.1742C68.0518 51.4286 67.9558 51.736 67.816 51.9993C67.5983 52.0805 67.4063 52.4769 67.2156 52.7356C67.1486 52.827 67.1214 52.7982 67.0663 52.8568C66.8575 53.0784 67.0425 53.0339 67.0118 53.1134C66.8771 53.453 66.6254 53.3099 66.3842 53.6451C66.371 53.6637 66.3315 53.9691 66.3147 54.0056C66.2196 54.2293 66.249 54.0032 66.149 54.1123C66.0615 54.2074 65.9846 54.2819 65.9072 54.3667C65.823 54.4586 65.7428 54.5589 65.6579 54.7005C65.6104 54.7799 65.5469 55.0089 65.3766 55.0985C65.3543 55.1102 65.3233 55.0679 65.3091 55.0804C65.0545 55.3097 65.1711 55.4184 65.0861 55.6028C65.0011 55.7873 64.7188 55.9435 64.6535 55.9688C64.4851 56.0352 64.7094 55.8525 64.7083 55.841C64.7028 55.701 64.5715 55.8777 64.4531 55.9974C64.3203 55.9114 64.1703 56.0904 64.3304 56.1217C64.3485 56.1245 64.4252 56.018 64.4531 55.9974C64.4699 56.2091 64.3062 56.4191 64.0014 56.5263C63.8582 56.575 63.895 56.4321 63.6235 56.737C63.4976 56.8745 63.6247 56.9032 63.5214 57.0378C63.2844 57.3463 62.8263 57.5824 62.4947 57.8053C62.3733 57.8871 62.5259 57.8627 62.4428 57.9202C62.2942 58.0219 62.1394 58.0868 61.9824 58.1561C61.9099 58.1878 61.8382 58.222 61.7655 58.2645C61.7458 58.2761 61.8226 58.3083 61.7519 58.3424C61.2151 58.6009 60.722 58.7776 60.1324 59.0019C59.8484 59.1118 59.3382 59.3208 59.0249 59.3984C58.484 59.5421 57.7868 59.5764 57.3082 59.6249C57.0962 59.6475 57.0591 59.6773 57.0158 59.7112C56.9964 59.7271 56.9756 59.7433 56.9345 59.7578C56.689 59.8452 56.2486 59.705 56.1897 59.6826C56.188 59.682 56.4448 59.6642 56.3073 59.6342C56.2268 59.5691 56.1927 59.6823 56.1897 59.6826C56.1509 59.669 55.637 59.6578 55.5348 59.6687C55.4793 59.675 55.5102 59.7337 55.4812 59.7359C54.7923 59.7861 54.0978 59.7851 53.3947 59.7146C53.3824 59.7127 53.4051 59.6484 53.3762 59.6447C52.972 59.5896 52.7047 59.6469 52.3614 59.6582C52.018 59.6688 51.7474 59.6138 51.5654 59.4706C51.323 59.446 50.9924 59.3375 50.7863 59.2563C50.7739 59.2514 50.7621 59.2467 50.7507 59.2421C50.5605 59.1666 50.5045 59.2854 50.4864 59.2837C49.9249 59.235 49.6298 59.1287 49.0024 58.9204C48.9103 58.8874 48.7867 58.8425 48.6512 58.7803C48.4342 58.6811 48.1312 58.5848 47.9299 58.5206C47.7013 58.4482 47.5716 58.3682 47.3513 58.2991C47.3214 58.2896 47.3291 58.3541 47.3194 58.3525C47.0528 58.3149 47.2226 58.2348 47.1831 58.1913C47.0417 58.0304 46.9554 57.9417 46.643 57.8271C46.5712 57.8009 46.2789 57.868 46.148 57.8022C45.9835 57.7194 46.0779 57.6941 45.908 57.6056C45.8937 57.5979 45.8707 57.6364 45.7734 57.5689C45.3168 57.2524 44.8732 56.8534 44.4637 56.4708C44.408 56.4184 44.4309 56.5372 44.3492 56.4615C44.1099 56.2391 43.8697 55.9917 43.65 55.737C43.5252 55.5922 43.4045 55.4476 43.2925 55.3065C43.2188 55.2134 43.3051 55.2352 43.2986 55.2064C43.257 55.0299 43.0118 54.9515 42.9846 54.9254C42.3445 54.3111 41.9675 53.7503 41.3285 53.0534C41.3054 53.028 41.1338 52.9148 41.021 52.7653C40.9756 52.7058 40.9414 52.6404 40.9407 52.5754C40.9408 52.5622 40.9404 52.3605 40.7857 52.2937C40.7761 52.2895 40.7894 52.4094 40.6851 52.262C40.5806 52.1146 40.3666 51.9015 40.2716 51.6554C40.2409 51.577 40.2262 51.3526 40.0106 51.2111C39.9966 51.2037 39.6057 51.0175 39.6566 50.8228C39.6658 50.7917 39.8077 50.7215 39.5843 50.528C39.5412 50.4905 39.5648 50.5919 39.469 50.4845C39.3201 50.3168 39.2003 50.0472 38.9987 49.8525C38.9644 49.8206 38.7669 49.7027 38.7544 49.5226C38.7523 49.4941 38.8225 49.5088 38.7834 49.4316C38.602 49.0715 38.3608 48.7236 38.1928 48.3499C38.1446 48.243 38.2071 48.2368 38.2047 48.1632C38.2045 48.146 38.2006 48.125 38.1904 48.0976C38.1378 47.9564 38.0092 47.679 37.901 47.5634C37.7912 47.445 37.754 47.6597 37.6317 47.4599C37.0988 46.5884 36.6898 45.6626 36.2201 44.7611C36.1504 44.6273 36.1663 44.7601 36.0608 44.565C35.6708 43.8445 34.968 42.6168 34.7286 41.9393C34.5365 41.3965 34.9266 42.0022 34.7534 41.6007C34.6706 41.4088 34.4242 41.2797 34.3966 41.238C34.1216 40.8225 34.0246 40.4857 33.7994 40.0996C33.7526 40.0194 33.7377 40.1296 33.6986 40.0612C33.5659 39.8301 33.4608 39.5653 33.3389 39.3406C33.2914 39.2532 33.2598 39.2725 33.2236 39.2187C33.2177 39.2098 33.2116 39.1991 33.2054 39.1858C33.0976 38.958 33.0125 38.7472 32.9418 38.5077C32.9353 38.4856 33.0591 38.5941 32.9754 38.4251C32.8412 38.1545 32.7111 37.7976 32.5135 37.5087C32.4541 37.4219 32.3524 37.469 32.322 37.2361C32.3153 37.1868 32.4627 37.1809 32.243 37.0018C32.206 36.971 31.8727 36.6553 31.8674 36.4228C31.866 36.3612 31.8998 36.1853 31.8281 36.0847C31.818 36.0713 31.7951 36.1577 31.7434 36.0708C31.5666 35.7718 31.3997 35.4534 31.2079 35.1501C31.2033 35.1428 31.1987 35.1356 31.1941 35.1283C31.1415 35.0461 31.1595 35.2036 31.0821 35.0792C30.871 34.7402 30.6293 34.3 30.4419 33.9545C30.373 33.8271 30.469 33.8857 30.4683 33.8738C30.4578 33.6812 30.3 33.6602 30.2644 33.6161C30.0441 33.3414 29.9507 33.0849 29.7636 32.8218C29.712 32.749 29.6968 32.8339 29.6828 32.8218C29.5403 32.6953 29.7032 32.7531 29.6497 32.6491C29.4999 32.3574 29.2955 32.0573 29.1044 31.789C29.0342 31.6908 29.0541 31.8413 28.9917 31.7527C28.7197 31.3687 28.4424 30.9728 28.1774 30.5843C28.0805 30.4423 27.9858 30.3012 27.8936 30.1612C27.8286 30.0623 27.9151 30.0904 27.91 30.0635C27.875 29.8767 27.6332 29.7472 27.5897 29.7083C27.3922 29.5316 27.3672 29.4235 27.2191 29.2474C26.4964 28.3897 25.6333 27.3039 24.9203 26.5663C24.8689 26.513 24.8174 26.4605 24.7676 26.4104C23.853 25.5203 23.1383 24.6065 22.2701 24.0403C22.2187 24.0112 22.2315 24.0839 22.1993 24.0799C22.1947 24.0789 22.1893 24.0768 22.1829 24.0734C21.3586 23.6284 20.58 23.1761 19.7413 22.8679C19.6726 22.8427 19.7465 22.9424 19.6359 22.9045C19.4092 22.8274 19.1264 22.7261 18.9024 22.6376C18.7926 22.5945 18.9602 22.5848 18.8488 22.5426C18.5894 22.4447 18.3015 22.3696 18.0208 22.3259C17.902 22.3079 18.067 22.4081 17.9139 22.3801C17.1662 22.2472 16.4156 22.2103 15.6437 22.2112C15.3178 22.2122 14.9911 22.2081 14.6621 22.197C14.5825 22.1944 14.5085 22.0599 14.3417 22.0937C14.3307 22.1324 14.3334 22.1772 14.3297 22.2182C12.6858 22.3227 11.0248 22.3395 9.49143 22.6594C9.4286 22.6737 9.55401 22.7191 9.43161 22.7477C9.13107 22.8193 8.84422 22.9119 8.62043 23.0206C8.2416 23.2057 7.86299 23.4018 7.46336 23.5946C7.39377 23.6287 7.36081 23.4976 7.17608 23.6349C7.14322 23.6586 6.86143 23.8588 6.80288 23.9318C6.79515 23.942 6.8803 23.9573 6.78894 24.0198C6.25793 24.383 5.70677 24.7729 5.18624 25.1526C5.10243 25.2137 5.14714 25.0945 5.08708 25.1377C4.65841 25.4473 4.26712 25.8651 3.87777 26.1788C3.61766 26.3906 3.62565 26.2249 3.42258 26.2837C3.39406 26.2913 3.25229 26.4465 3.19837 26.4134C3.05977 26.3311 2.99793 26.1381 2.84255 26.0591C2.80808 26.0415 2.64438 26.2957 2.69153 26.1037C2.69477 26.0899 2.81629 25.906 2.83168 25.8456C2.84137 25.8042 2.74854 25.8111 2.78047 25.7367C2.8133 25.6616 2.90972 25.6364 2.97578 25.5227C3.04105 25.4103 2.94995 25.3973 3.12329 25.2118ZM49.8818 58.9109C49.7074 58.8095 49.6301 59.0219 49.8458 59.015C49.8563 59.0143 49.8909 58.9159 49.8818 58.9109ZM68.7743 49.55C68.5724 49.7144 68.6252 49.9363 68.7722 49.8164C68.8717 49.7363 68.865 49.6201 68.8312 49.5699C68.8188 49.5491 68.8019 49.5384 68.7851 49.5443C68.7814 49.5454 68.7778 49.5473 68.7743 49.55ZM70.1002 47.3722C69.8624 47.5538 70.091 47.7798 70.224 47.4994C70.2319 47.4833 70.1141 47.3617 70.1002 47.3722ZM3.98995 25.665C3.98637 25.664 3.87379 25.7681 3.87366 25.7726C3.86514 25.8797 4.08755 25.6737 3.98995 25.665ZM71.715 45.3934C71.6234 45.4348 71.4893 45.6652 71.6038 45.6148C71.6964 45.5741 71.8295 45.3417 71.715 45.3934ZM42.0286 52.9906C42.0289 52.9859 41.9605 52.8999 41.9472 52.9134C41.9056 52.9587 42.0181 53.0653 42.0286 52.9906ZM73.7432 41.6118C73.6922 41.7103 73.6537 41.7998 73.6244 41.8879C73.5012 42.3134 73.3069 42.4057 73.4075 41.8778C73.4082 41.873 73.4089 41.8691 73.4096 41.8659C73.4098 41.8633 73.4108 41.8555 73.4112 41.8529C73.4168 41.8334 73.4214 41.8382 73.4258 41.8553C73.4255 41.8577 73.4246 41.8648 73.4244 41.8671C73.4475 41.9167 73.4692 42.1109 73.5027 41.9964C73.5145 41.9548 73.5206 41.9143 73.5227 41.8753C73.5522 41.6364 73.5667 41.4046 73.7717 41.2265C73.8123 41.1897 73.7497 41.5839 73.7431 41.6129C73.7431 41.6125 73.7432 41.6122 73.7432 41.6118ZM49.8325 58.6239C49.8294 58.6204 49.6812 58.5836 49.6769 58.5854C49.5794 58.636 49.88 58.711 49.8325 58.6239ZM38.5819 47.5649C38.5836 47.555 38.417 47.2414 38.4064 47.2341C38.2149 47.1283 38.5512 47.7622 38.5819 47.5649ZM59.9283 58.4195C60.0573 58.2938 60.2352 58.2133 60.3916 58.2457C60.2377 58.3043 60.0843 58.3648 59.9283 58.4195Z" fill="#0E0E13"/>
<path d="M3.72562 17.8656C3.69507 18.0188 3.48025 18.6943 3.34784 19.1992C3.25609 19.549 3.15525 19.9471 2.86382 21.1737C2.64503 22.0946 2.19137 23.8184 1.94785 24.7459C1.68358 25.7525 1.58118 26.1035 1.47331 26.5813C1.35144 27.1211 1.33396 27.4322 1.27979 27.6871C1.22333 27.9528 1.19507 28.1424 1.17146 28.3049C1.14155 28.5107 1.62563 28.2054 3.04831 27.991C4.34703 27.7954 6.82376 27.4711 8.45778 27.298C10.0918 27.1248 10.8099 27.1248 11.218 27.1401C11.7025 27.1859 11.827 27.2327 11.9193 27.2711C11.9659 27.2943 12.0117 27.3248 12.1515 27.4026" stroke="#0E0E13" stroke-linecap="round"/>
</svg>
