<svg xmlns="http://www.w3.org/2000/svg" fill="none"><path fill="#0B7DC2" fill-rule="evenodd" d="m31.9 7.615-5.85 5.85a4 4 0 0 0 0 5.657l2.828 2.829a4 4 0 0 0 5.657 0l5.85-5.85c1.083 3.989.074 8.41-3.036 11.52-3.658 3.659-9.132 4.41-13.581 2.268L13.515 40.142a4 4 0 1 1-5.657-5.657L18.11 24.232c-2.142-4.45-1.39-9.923 2.267-13.581 3.11-3.11 7.532-4.12 11.522-3.036" clip-rule="evenodd"/><path fill="#0B7DC2" fill-rule="evenodd" d="m33.314 11.858 2.828 2.828a2 2 0 0 1 0 2.829l-2.76 2.759a2 2 0 0 1-2.828 0l-2.828-2.829a2 2 0 0 1 0-2.828l2.76-2.76a2 2 0 0 1 2.828 0" clip-rule="evenodd" opacity=".3"/></svg>